<?xml version="1.0" encoding="utf-8"?>
<!-- Generator: Adobe Illustrator 24.2.1, SVG Export Plug-In . SVG Version: 6.00 Build 0)  -->
<svg version="1.1" id="Layer_1" xmlns="http://www.w3.org/2000/svg" xmlns:xlink="http://www.w3.org/1999/xlink" x="0px" y="0px"
	 viewBox="0 0 1366 500" style="enable-background:new 0 0 1366 500;" xml:space="preserve">
<style type="text/css">
	.st0{clip-path:url(#SVGID_2_);}
	.st1{fill:#2BBFFF;}
	.st2{fill:#FF7A2B;}
	.st3{opacity:5.000000e-02;fill:#2BBFFF;enable-background:new    ;}
	.st4{opacity:0.5;fill:#2BBFFF;enable-background:new    ;}
	.st5{font-family:'Raleway-SemiBold';}
	.st6{font-size:23.0433px;}
</style>
<g>
	<g>
		<defs>
			<rect id="SVGID_1_" y="69.5" width="1366" height="430"/>
		</defs>
		<clipPath id="SVGID_2_">
			<use xlink:href="#SVGID_1_"  style="overflow:visible;"/>
		</clipPath>
		<g class="st0">
			<circle class="st1" cx="1097" cy="327.5" r="118"/>
			<circle class="st2" cx="1220" cy="470.5" r="223"/>
		</g>
	</g>
</g>
<rect y="90.5" class="st2" width="14" height="299"/>
<path class="st1" d="M155.8,196.4h-44l-7.7,17.1H90.3l36.5-81.3H141l36.5,81.3h-13.8L155.8,196.4z M133.8,145.9l-17.2,38.7H151
	L133.8,145.9z"/>
<path class="st1" d="M188.7,213.5v-81.3h12.9v81.3H188.7z"/>
<path class="st1" d="M252.8,132.2c6.2-0.1,12.3,1,18,3.4c4.9,2,9.3,5.1,12.8,9.1c3.2,3.8,5.7,8.1,7.4,12.7c1.7,4.7,2.6,9.7,2.7,14.8
	c0.2,5.1-0.6,10.3-2.2,15.2c-1.6,4.8-4.1,9.3-7.3,13.2c-3.5,4.2-8,7.4-13,9.5c-5.8,2.4-12.1,3.6-18.4,3.5H222v-81.3L252.8,132.2
	L252.8,132.2z M235,201h17.9c9.3,0,16.3-2.8,21-8.5s7.2-13,6.8-20.5c-0.1-4.6-1.1-9.1-3-13.2c-2-4.2-5.2-7.7-9.2-10.1
	c-4.3-2.7-9.5-4.1-15.6-4.1H235V201z"/>
<path class="st1" d="M357.8,150.2c-2.1-2.9-5-5.2-8.3-6.6c-3.7-1.6-7.7-2.5-11.8-2.5c-5.6,0-10.1,1.1-13.6,3.3s-5.2,5.2-5.2,9
	c-0.1,3.4,1.9,6.5,5.1,7.8c3.4,1.6,8.3,2.9,14.7,3.8c4.1,0.6,8.3,1.4,12.3,2.4c3.5,1,6.9,2.4,10.1,4.1c3.2,1.7,5.8,4.3,7.6,7.4
	c1.8,3.4,2.7,7.3,2.6,11.2c0.2,5.3-1.6,10.5-5.1,14.5c-3.3,3.8-7.5,6.7-12.3,8.2c-5.3,1.6-10.8,2.5-16.3,2.4
	c-16.7,0-28.3-6.2-35-18.5l9.8-6.5c5.3,8.9,13.7,13.4,25.3,13.4c3.3,0,6.6-0.4,9.8-1.2c2.9-0.7,5.5-2.2,7.6-4.4c2.1-2.1,3.3-5,3.2-8
	c0.1-3.9-2-7.4-5.5-9.1c-3.7-2-8.8-3.4-15.3-4.2c-3.2-0.4-6.4-0.9-9.6-1.6c-2.9-0.7-5.7-1.6-8.4-2.7c-2.6-1-5-2.4-7.1-4.2
	c-1.9-1.8-3.5-3.9-4.5-6.3c-1.2-2.8-1.9-5.8-1.8-8.9c-0.2-7.4,3.8-14.3,10.2-18c3.1-1.8,6.5-3.1,10-4c3.7-0.9,7.4-1.4,11.2-1.3
	c14.5,0,24.6,4.6,30.3,13.7L357.8,150.2z"/>
<path class="st1" d="M398.9,188.5v25h-13v-81.4c4.1,0,10.4,0,18.8-0.1c8.4,0,14.7-0.1,18.9-0.1c3.9,0,7.8,0.6,11.4,1.9
	c3.2,1.1,6.1,2.9,8.6,5.2c2.3,2.2,4.2,4.7,5.8,7.5c1.6,2.7,2.5,5.8,2.9,8.9c0.4,3.1,0.4,6.2,0,9.4c-0.3,3.2-1.3,6.2-2.9,9
	c-1.5,2.8-3.5,5.3-5.8,7.5c-2.5,2.3-5.5,4.1-8.7,5.2c-3.7,1.4-7.6,2-11.5,2L398.9,188.5z M398.9,176.5h24.6c3.1,0.1,6.2-0.7,8.9-2.4
	c2.4-1.4,4.3-3.5,5.5-6c2.2-5,2.2-10.7,0-15.7c-1.2-2.5-3.1-4.6-5.5-6c-2.7-1.6-5.8-2.5-8.9-2.4h-24.6V176.5z"/>
<path class="st1" d="M516.7,196.4h-44l-7.7,17.1h-13.8l36.5-81.3h14.2l36.5,81.3h-13.8L516.7,196.4z M494.7,145.9l-17.2,38.7H512
	L494.7,145.9z"/>
<path class="st1" d="M605.7,190v-57.8h13v81.3h-9.9l-46.1-57.4v57.4h-13.1v-81.3h10L605.7,190z"/>
<circle class="st1" cx="609.9" cy="260.2" r="9.7"/>
<polygon class="st3" points="0,499.5 851.2,368.3 632.8,0 0,0 "/>
<circle class="st2" cx="842.2" cy="362.7" r="20.3"/>
<circle class="st4" cx="837.2" cy="372.2" r="17.1"/>
<text transform="matrix(1 0 0 1 89.2812 268.1888)" class="st2 st5 st6"> L’observateur indépendent du Fonds Mondial</text>
</svg>
