<?xml version="1.0" encoding="utf-8"?>
<!-- Generator: Adobe Illustrator 24.0.1, SVG Export Plug-In . SVG Version: 6.00 Build 0)  -->
<svg version="1.1" id="Layer_1" xmlns="http://www.w3.org/2000/svg" xmlns:xlink="http://www.w3.org/1999/xlink" x="0px" y="0px"
	 viewBox="0 0 1366 500" style="enable-background:new 0 0 1366 500;" xml:space="preserve">
<style type="text/css">
	.st0{clip-path:url(#SVGID_2_);}
	.st1{fill:#2BBFFF;}
	.st2{fill:#FF7A2B;}
	.st3{fill:#FFFFFF;}
	.st4{font-family:'Nexa-Bold';}
	.st5{font-size:23.4947px;}
	.st6{font-size:24.9938px;}
	.st7{opacity:5.000000e-02;fill:#2BBFFF;}
	.st8{opacity:0.5;fill:#2BBFFF;}
</style>
<g>
	<g>
		<g>
			<defs>
				<rect id="SVGID_1_" y="69.5" width="1366" height="430"/>
			</defs>
			<clipPath id="SVGID_2_">
				<use xlink:href="#SVGID_1_"  style="overflow:visible;"/>
			</clipPath>
			<g class="st0">
				<circle class="st1" cx="1097" cy="327.5" r="118"/>
				<circle class="st2" cx="1220" cy="470.5" r="223"/>
			</g>
		</g>
	</g>
	<rect y="90.5" class="st2" width="14" height="299"/>
</g>
<g>
	<path class="st1" d="M155.8,196.4h-44l-7.7,17.1H90.3l36.5-81.3h14.2l36.5,81.3h-13.8L155.8,196.4z M133.9,145.9l-17.2,38.7h34.4
		L133.9,145.9z"/>
	<path class="st1" d="M188.7,213.5v-81.3h12.9v81.3H188.7z"/>
	<path class="st1" d="M252.8,132.2c6.7,0,12.6,1.1,18,3.4c5.3,2.2,9.6,5.3,12.8,9.1c3.2,3.8,5.7,8.1,7.4,12.7
		c1.7,4.6,2.6,9.6,2.7,14.8c0.2,5.3-0.6,10.3-2.2,15.2c-1.6,4.8-4,9.2-7.3,13.2c-3.2,4-7.5,7.1-13,9.5s-11.5,3.5-18.4,3.5H222v-81.3
		H252.8z M234.9,201h17.9c9.3,0,16.3-2.8,21-8.5c4.7-5.7,7-12.5,6.9-20.4c-0.2-4.8-1.2-9.2-3-13.2c-1.9-4-4.9-7.4-9.2-10.1
		c-4.3-2.7-9.5-4.1-15.6-4.1h-17.9V201z"/>
	<path class="st1" d="M357.8,150.2c-1.9-2.8-4.7-5-8.3-6.6c-3.6-1.6-7.5-2.4-11.8-2.5c-5.6,0-10.1,1.1-13.6,3.3
		c-3.5,2.2-5.2,5.2-5.2,9c0,3.6,1.7,6.2,5.1,7.8s8.3,2.9,14.7,3.8c4.8,0.7,8.9,1.5,12.3,2.4c3.4,0.9,6.8,2.3,10.1,4.1
		c3.3,1.8,5.9,4.3,7.6,7.4c1.7,3.1,2.6,6.9,2.6,11.2c0,5.8-1.7,10.7-5.1,14.5c-3.4,3.9-7.5,6.6-12.3,8.2c-4.8,1.6-10.3,2.4-16.3,2.4
		c-16.7,0-28.3-6.2-35-18.5l9.8-6.5c5.3,8.9,13.7,13.4,25.3,13.4c3.6,0,6.8-0.4,9.8-1.2c2.9-0.8,5.5-2.2,7.6-4.4s3.2-4.8,3.2-8
		c0-4.1-1.8-7.1-5.5-9.1c-3.7-2-8.8-3.4-15.3-4.2c-3.7-0.5-6.9-1-9.6-1.6c-2.7-0.6-5.5-1.5-8.4-2.7c-2.9-1.2-5.3-2.6-7.1-4.2
		c-1.8-1.6-3.3-3.7-4.5-6.3c-1.2-2.6-1.8-5.6-1.8-8.9c0-4,0.9-7.6,2.8-10.7c1.9-3.1,4.3-5.5,7.4-7.3c3.1-1.8,6.4-3.1,10-4
		c3.6-0.9,7.3-1.3,11.2-1.3c14.5,0,24.6,4.6,30.3,13.7L357.8,150.2z"/>
	<path class="st1" d="M398.9,188.5v25h-13v-81.3c4.1,0,10.4,0,18.8-0.1s14.7-0.1,18.9-0.1s8,0.6,11.5,1.9c3.5,1.3,6.4,3,8.6,5.2
		c2.2,2.2,4.2,4.7,5.8,7.5s2.6,5.8,2.9,8.9c0.3,3.1,0.3,6.2,0,9.4s-1.3,6.1-2.8,8.9c-1.5,2.8-3.5,5.3-5.8,7.5s-5.2,3.9-8.7,5.2
		s-7.3,2-11.5,2H398.9z M398.9,176.6h24.6c3.4,0,6.4-0.8,8.9-2.4c2.5-1.6,4.3-3.6,5.5-6c1.1-2.4,1.7-5.1,1.7-7.8
		c0-2.8-0.6-5.4-1.7-7.8c-1.1-2.4-2.9-4.5-5.5-6s-5.5-2.4-8.9-2.4h-24.6V176.6z"/>
	<path class="st1" d="M516.7,196.4h-44l-7.7,17.1h-13.8l36.5-81.3h14.2l36.5,81.3h-13.8L516.7,196.4z M494.8,145.9l-17.2,38.7H512
		L494.8,145.9z"/>
	<path class="st1" d="M605.7,190v-57.9h13v81.3h-9.9l-46.1-57.4v57.4h-13.1v-81.3h10L605.7,190z"/>
</g>
<path class="st1" d="M309.3,101.6H93.9c-2.6,0-4.6-2.1-4.6-4.6V74.1c0-2.6,2.1-4.6,4.6-4.6h215.5c2.6,0,4.6,2.1,4.6,4.6V97
	C313.9,99.5,311.9,101.6,309.3,101.6z"/>
<text transform="matrix(1 0 0 1 116.7979 93.6953)" class="st3 st4 st5">WELCOME TO</text>
<text transform="matrix(1 0 0 1 88.2344 267.4316)" class="st2 st4 st6">The Independent Global Fund Observer</text>
<circle class="st1" cx="609.9" cy="260.2" r="9.7"/>
<polygon class="st7" points="0,499.5 851.2,368.3 632.8,0 0,0 "/>
<circle class="st2" cx="842.2" cy="362.7" r="20.3"/>
<circle class="st8" cx="837.2" cy="372.2" r="17.1"/>
</svg>
