<svg id="Layer_1" data-name="Layer 1" xmlns="http://www.w3.org/2000/svg" xmlns:xlink="http://www.w3.org/1999/xlink" viewBox="0 0 1366 500"><defs><style>.cls-1{fill:none;}.cls-2{clip-path:url(#clip-path);}.cls-3,.cls-5,.cls-6{fill:#2bbfff;}.cls-4{fill:#ff7a2b;}.cls-5{opacity:0.05;}.cls-6{opacity:0.5;}</style><clipPath id="clip-path"><rect class="cls-1" y="69.5" width="1366" height="430"/></clipPath></defs><title>corners</title><g class="cls-2"><circle class="cls-3" cx="1097" cy="327.5" r="118"/><circle class="cls-4" cx="1220" cy="470.5" r="223"/></g><rect class="cls-4" y="90.5" width="14" height="299"/><path class="cls-3" d="M155.81,196.43h-44l-7.67,17.08H90.28l36.49-81.34h14.17l36.49,81.34H163.6Zm-22-50.55-17.19,38.7h34.39Z"/><path class="cls-3" d="M188.7,213.51V132.17h12.9v81.34Z"/><path class="cls-3" d="M252.84,132.17a45.73,45.73,0,0,1,18,3.37,33.21,33.21,0,0,1,12.78,9.12A42.25,42.25,0,0,1,291,157.39a44.37,44.37,0,0,1,2.68,14.75,43.53,43.53,0,0,1-2.21,15.17,42,42,0,0,1-7.26,13.19,33.8,33.8,0,0,1-13,9.47,45.55,45.55,0,0,1-18.36,3.54H222.05V132.17ZM235,201h17.89q13.95,0,21-8.54A29.93,29.93,0,0,0,280.73,172a34,34,0,0,0-3-13.25,23.71,23.71,0,0,0-9.24-10.11q-6.45-4.06-15.63-4.06H235Z"/><path class="cls-3" d="M357.77,150.18a19.3,19.3,0,0,0-8.31-6.56,30.29,30.29,0,0,0-11.79-2.5q-8.37,0-13.6,3.31t-5.23,9a8.13,8.13,0,0,0,5.06,7.78q5.06,2.44,14.7,3.84a102.86,102.86,0,0,1,12.31,2.44A46.65,46.65,0,0,1,361,171.62a18.75,18.75,0,0,1,7.61,7.44,22.63,22.63,0,0,1,2.62,11.21,21.32,21.32,0,0,1-5.06,14.52,27.31,27.31,0,0,1-12.31,8.2,52.5,52.5,0,0,1-16.33,2.38q-25,0-35-18.48l9.76-6.5q7.89,13.35,25.33,13.36a38.59,38.59,0,0,0,9.76-1.16,16.58,16.58,0,0,0,7.61-4.36,10.79,10.79,0,0,0,3.19-8,9.72,9.72,0,0,0-5.51-9.12q-5.52-3-15.28-4.24a96.87,96.87,0,0,1-9.59-1.63,60.58,60.58,0,0,1-8.43-2.67,23.78,23.78,0,0,1-7.14-4.18,19.11,19.11,0,0,1-4.53-6.34,20.91,20.91,0,0,1-1.8-8.89,20.17,20.17,0,0,1,10.22-18,38.89,38.89,0,0,1,10-4,45.48,45.48,0,0,1,11.16-1.34q21.72,0,30.33,13.71Z"/><path class="cls-3" d="M398.91,188.53v25h-13V132.17q6.17,0,18.77-.06t18.88-.05A33.35,33.35,0,0,1,435,134a24.3,24.3,0,0,1,8.6,5.17,32.34,32.34,0,0,1,5.75,7.5,23.34,23.34,0,0,1,2.91,8.89,41.76,41.76,0,0,1,0,9.35,24,24,0,0,1-2.85,9,30.48,30.48,0,0,1-5.75,7.49,25.36,25.36,0,0,1-8.66,5.23,32.21,32.21,0,0,1-11.5,2Zm0-12h24.63a16.3,16.3,0,0,0,8.89-2.38,14,14,0,0,0,5.46-6,19.16,19.16,0,0,0,0-15.69,14,14,0,0,0-5.46-6,16.3,16.3,0,0,0-8.89-2.39H398.91Z"/><path class="cls-3" d="M516.73,196.43h-44L465,213.51H451.2l36.48-81.34h14.18l36.48,81.34H524.52Zm-22-50.55-17.2,38.7H512Z"/><path class="cls-3" d="M605.74,190V132.17h13v81.34h-9.87l-46.13-57.4v57.4H549.62V132.17h10Z"/><path class="cls-4" d="M94.41,252.46H88.66v-2.52H103v2.52H97.23v15H94.41Z"/><path class="cls-4" d="M107.7,249.94v7a5.17,5.17,0,0,1,7.8-.43,6.58,6.58,0,0,1,1.28,4.28v6.65H114.2v-6.62a3.66,3.66,0,0,0-.82-2.59,3,3,0,0,0-2.28-.89,3.13,3.13,0,0,0-2.43,1.07,3.7,3.7,0,0,0-1,2.61v6.42h-2.57V249.94Z"/><path class="cls-4" d="M122,262.23a3.19,3.19,0,0,0,1.26,2.25,4.31,4.31,0,0,0,2.76.85,5.93,5.93,0,0,0,2-.36,3.71,3.71,0,0,0,1.56-1l1.68,1.62a6.11,6.11,0,0,1-2.36,1.55,8.11,8.11,0,0,1-2.94.55,6.63,6.63,0,0,1-4.84-1.77,6.39,6.39,0,0,1-1.81-4.75,6.15,6.15,0,0,1,6.47-6.42,6.21,6.21,0,0,1,4.83,1.89q1.72,1.9,1.37,5.55Zm7.52-2.17a2.92,2.92,0,0,0-1.09-2.2,4.48,4.48,0,0,0-5.05,0,3.55,3.55,0,0,0-1.33,2.2Z"/><path class="cls-4" d="M141.32,267.43V249.94h2.77v17.49Z"/><path class="cls-4" d="M157.27,267.43v-6.6a3.7,3.7,0,0,0-.88-2.58,3.11,3.11,0,0,0-2.45-1,3.18,3.18,0,0,0-2.47,1.08,3.77,3.77,0,0,0-1,2.62v6.45h-2.57V255.08h2.35l.15,1.8a5.38,5.38,0,0,1,4.15-2,5,5,0,0,1,3.81,1.57,6.07,6.07,0,0,1,1.49,4.33v6.62Z"/><path class="cls-4" d="M175.56,250v17.47h-2.42l-.15-1.95a4.65,4.65,0,0,1-4.28,2.2,6,6,0,0,1-6.29-6.42,6.31,6.31,0,0,1,1.73-4.74,6.22,6.22,0,0,1,4.51-1.69,5.89,5.89,0,0,1,2.49.59A4,4,0,0,1,173,257V250Zm-9.46,8.37a4.41,4.41,0,0,0,0,5.85,4,4,0,0,0,5.57,0,4.23,4.23,0,0,0,0-5.78,3.78,3.78,0,0,0-2.78-1.12A3.87,3.87,0,0,0,166.1,258.33Z"/><path class="cls-4" d="M181,262.23a3.23,3.23,0,0,0,1.27,2.25,4.31,4.31,0,0,0,2.76.85,5.93,5.93,0,0,0,2-.36,3.71,3.71,0,0,0,1.56-1l1.68,1.62a6.11,6.11,0,0,1-2.36,1.55,8.11,8.11,0,0,1-2.94.55,6.63,6.63,0,0,1-4.84-1.77,6.35,6.35,0,0,1-1.81-4.75,6.15,6.15,0,0,1,6.47-6.42,6.21,6.21,0,0,1,4.83,1.89q1.72,1.9,1.37,5.55Zm7.53-2.17a2.92,2.92,0,0,0-1.09-2.2,4.48,4.48,0,0,0-5,0,3.56,3.56,0,0,0-1.34,2.2Z"/><path class="cls-4" d="M193.61,273.16V255.11H196l.15,2a4.47,4.47,0,0,1,1.86-1.66,5.56,5.56,0,0,1,2.49-.59,6.06,6.06,0,0,1,4.49,1.82,7.07,7.07,0,0,1,0,9.23,5.92,5.92,0,0,1-4.52,1.8,6.21,6.21,0,0,1-2.49-.52,3.87,3.87,0,0,1-1.86-1.56v7.53Zm9.47-9.05a4.22,4.22,0,0,0,0-5.66,3.75,3.75,0,0,0-2.82-1.09,3.68,3.68,0,0,0-2.81,1.12,3.92,3.92,0,0,0-1.06,2.8,3.81,3.81,0,0,0,1.1,2.8,3.7,3.7,0,0,0,2.77,1.13A3.81,3.81,0,0,0,203.08,264.11Z"/><path class="cls-4" d="M211.43,262.23a3.19,3.19,0,0,0,1.26,2.25,4.31,4.31,0,0,0,2.76.85,5.93,5.93,0,0,0,2-.36,3.71,3.71,0,0,0,1.56-1l1.68,1.62a6,6,0,0,1-2.36,1.55,8.11,8.11,0,0,1-2.94.55,6.63,6.63,0,0,1-4.84-1.77,6.39,6.39,0,0,1-1.81-4.75,6.15,6.15,0,0,1,6.48-6.42,6.2,6.2,0,0,1,4.82,1.89q1.72,1.9,1.37,5.55Zm7.52-2.17a2.92,2.92,0,0,0-1.09-2.2,4.48,4.48,0,0,0-5.05,0,3.55,3.55,0,0,0-1.33,2.2Z"/><path class="cls-4" d="M233.4,267.43v-6.6a3.7,3.7,0,0,0-.88-2.58,3.11,3.11,0,0,0-2.45-1,3.18,3.18,0,0,0-2.47,1.08,3.77,3.77,0,0,0-1,2.62v6.45h-2.57V255.08h2.35l.15,1.8a5.38,5.38,0,0,1,4.15-2,5,5,0,0,1,3.81,1.57,6.07,6.07,0,0,1,1.49,4.33v6.62Z"/><path class="cls-4" d="M251.69,250v17.47h-2.42l-.15-1.95a4.65,4.65,0,0,1-4.28,2.2,6,6,0,0,1-6.3-6.42,6.31,6.31,0,0,1,1.74-4.74,6.22,6.22,0,0,1,4.51-1.69,5.89,5.89,0,0,1,2.49.59,4,4,0,0,1,1.84,1.61V250Zm-9.46,8.37a4.41,4.41,0,0,0,0,5.85,4,4,0,0,0,5.57,0,4.23,4.23,0,0,0,0-5.78,3.78,3.78,0,0,0-2.78-1.12A3.87,3.87,0,0,0,242.23,258.33Z"/><path class="cls-4" d="M257.11,262.23a3.23,3.23,0,0,0,1.27,2.25,4.31,4.31,0,0,0,2.76.85,6,6,0,0,0,2-.36,3.78,3.78,0,0,0,1.56-1l1.68,1.62a6.08,6.08,0,0,1-2.37,1.55,8,8,0,0,1-2.93.55,6.63,6.63,0,0,1-4.84-1.77,6.35,6.35,0,0,1-1.81-4.75,6.15,6.15,0,0,1,6.47-6.42,6.21,6.21,0,0,1,4.83,1.89c1.15,1.27,1.6,3.12,1.37,5.55Zm7.53-2.17a2.92,2.92,0,0,0-1.09-2.2,4.48,4.48,0,0,0-5.05,0,3.56,3.56,0,0,0-1.34,2.2Z"/><path class="cls-4" d="M279.08,267.43v-6.6a3.7,3.7,0,0,0-.87-2.58,3.11,3.11,0,0,0-2.45-1,3.18,3.18,0,0,0-2.47,1.08,3.77,3.77,0,0,0-1,2.62v6.45h-2.57V255.08h2.35l.15,1.8a5.36,5.36,0,0,1,4.14-2,5,5,0,0,1,3.82,1.57,6.07,6.07,0,0,1,1.48,4.33v6.62Z"/><path class="cls-4" d="M288.73,251.56v3.57h3.6v2.23h-3.62v5.87c0,1.35.59,2,1.77,2a3.52,3.52,0,0,0,1.58-.43l.74,2.2a6,6,0,0,1-2.47.55,4,4,0,0,1-3.11-1.06,4.5,4.5,0,0,1-1.09-3.29v-5.87h-2.37v-2.23h2.37v-3.29Z"/><path class="cls-4" d="M314.45,254a6.17,6.17,0,0,0-2.19-1.39,7.21,7.21,0,0,0-2.53-.48A6,6,0,0,0,305,254a6.84,6.84,0,0,0-1.72,4.82,6.49,6.49,0,0,0,1.62,4.47,6.11,6.11,0,0,0,4.83,1.83,6.47,6.47,0,0,0,4.27-1.55v-3.55h-4.87v-2.5h7.47v7.17a8.89,8.89,0,0,1-6.87,3,10.76,10.76,0,0,1-4.14-.74,7.26,7.26,0,0,1-2.89-2,8.82,8.82,0,0,1-1.62-2.82,10,10,0,0,1-.55-3.36A9.48,9.48,0,0,1,303,252.2a8.67,8.67,0,0,1,6.75-2.69,8.84,8.84,0,0,1,6.47,2.65Z"/><path class="cls-4" d="M322.27,250v17.47H319.7V250Z"/><path class="cls-4" d="M336.06,256.7a6.82,6.82,0,0,1,0,9.17,6.15,6.15,0,0,1-4.63,1.81,6.09,6.09,0,0,1-4.6-1.81,6.89,6.89,0,0,1,0-9.19,6.7,6.7,0,0,1,9.2,0Zm-7.35,1.71a4.19,4.19,0,0,0-1,2.87,4.08,4.08,0,0,0,1,2.85,3.48,3.48,0,0,0,2.75,1.15,3.52,3.52,0,0,0,2.76-1.15,4.41,4.41,0,0,0,0-5.71,3.53,3.53,0,0,0-2.72-1.19A3.48,3.48,0,0,0,328.71,258.41Z"/><path class="cls-4" d="M343.14,250V257a4,4,0,0,1,1.84-1.61,5.89,5.89,0,0,1,2.49-.59,6.25,6.25,0,0,1,4.5,1.69,7.22,7.22,0,0,1,0,9.44,6.21,6.21,0,0,1-4.52,1.72,4.65,4.65,0,0,1-4.28-2.2l-.15,1.95h-2.42V250Zm1.3,8.42a4.22,4.22,0,0,0,0,5.78,4.06,4.06,0,0,0,5.59,0,4,4,0,0,0-2.78-6.91A3.86,3.86,0,0,0,344.44,258.38Z"/><path class="cls-4" d="M366.36,255.11h2.5v12.32h-2.45l-.12-2a3.9,3.9,0,0,1-1.79,1.73,5.5,5.5,0,0,1-2.46.6,6.19,6.19,0,0,1-4.55-1.7,6.4,6.4,0,0,1-1.78-4.8,6.16,6.16,0,0,1,1.82-4.71,6.36,6.36,0,0,1,4.56-1.72,5.39,5.39,0,0,1,2.47.6,4.14,4.14,0,0,1,1.73,1.63Zm-6.92,3.19a4.1,4.1,0,0,0,2.85,7.06,4.19,4.19,0,0,0,2-.45,3.18,3.18,0,0,0,1.3-1.18,5.66,5.66,0,0,0,.65-1.58,3.66,3.66,0,0,0,0-1.74,5.66,5.66,0,0,0-.65-1.6,3.25,3.25,0,0,0-1.3-1.18,4.19,4.19,0,0,0-2-.45A3.89,3.89,0,0,0,359.44,258.3Z"/><path class="cls-4" d="M375,250v17.47h-2.57V250Z"/><path class="cls-4" d="M385.31,267.43V250h12.37v2.73h-9.57V258h9.09v2.6h-9.09v6.82Z"/><path class="cls-4" d="M402.5,255.11v6.6a3.68,3.68,0,0,0,.89,2.57,3.45,3.45,0,0,0,4.92-.1,3.82,3.82,0,0,0,1-2.65v-6.42h2.58v12.35h-2.33l-.14-1.83a5.47,5.47,0,0,1-4.25,2,4.87,4.87,0,0,1-3.77-1.57,6.21,6.21,0,0,1-1.43-4.33v-6.62Z"/><path class="cls-4" d="M424.7,267.43v-6.6a3.7,3.7,0,0,0-.88-2.58,3.11,3.11,0,0,0-2.45-1,3.18,3.18,0,0,0-2.47,1.08,3.77,3.77,0,0,0-1,2.62v6.45h-2.57V255.08h2.35l.15,1.8a5.38,5.38,0,0,1,4.15-2,5,5,0,0,1,3.81,1.57,6.07,6.07,0,0,1,1.49,4.33v6.62Z"/><path class="cls-4" d="M443,250v17.47h-2.42l-.15-1.95a4.65,4.65,0,0,1-4.28,2.2,6,6,0,0,1-6.3-6.42,6.31,6.31,0,0,1,1.74-4.74,6.22,6.22,0,0,1,4.51-1.69,5.89,5.89,0,0,1,2.49.59,4,4,0,0,1,1.84,1.61V250Zm-9.46,8.37a4.41,4.41,0,0,0,0,5.85,4,4,0,0,0,5.57,0,4.23,4.23,0,0,0,0-5.78,3.78,3.78,0,0,0-2.78-1.12A3.87,3.87,0,0,0,433.53,258.33Z"/><path class="cls-4" d="M467.66,252.3a9.47,9.47,0,0,1,2.32,6.46,10.12,10.12,0,0,1-.56,3.41,9.21,9.21,0,0,1-1.62,2.89,7.23,7.23,0,0,1-2.82,2,10.06,10.06,0,0,1-3.94.74,9.73,9.73,0,0,1-4-.77,7.37,7.37,0,0,1-2.82-2,9.62,9.62,0,0,1-1.62-2.86,10.14,10.14,0,0,1-.56-3.37,9,9,0,0,1,2.52-6.58,8.65,8.65,0,0,1,6.48-2.59A8.32,8.32,0,0,1,467.66,252.3Zm-12.41,8.82a6.65,6.65,0,0,0,1.09,2.05,5.23,5.23,0,0,0,1.93,1.5,6.59,6.59,0,0,0,2.77.56,5.71,5.71,0,0,0,4.62-1.83,6.91,6.91,0,0,0,1.55-4.59,8,8,0,0,0-.61-3.15,5.67,5.67,0,0,0-2.05-2.46,6,6,0,0,0-3.46-1A5.82,5.82,0,0,0,456.5,254a7,7,0,0,0-1.64,4.8A8.1,8.1,0,0,0,455.25,261.12Z"/><path class="cls-4" d="M475.28,250V257a4,4,0,0,1,1.84-1.61,5.89,5.89,0,0,1,2.49-.59,6.25,6.25,0,0,1,4.5,1.69,7.22,7.22,0,0,1,0,9.44,6.21,6.21,0,0,1-4.52,1.72,4.65,4.65,0,0,1-4.28-2.2l-.15,1.95h-2.42V250Zm1.3,8.42a4,4,0,0,0,2.8,6.9,3.81,3.81,0,0,0,2.78-1.11,4,4,0,0,0-2.78-6.91A3.86,3.86,0,0,0,476.58,258.38Z"/><path class="cls-4" d="M496.48,258.13a4.66,4.66,0,0,0-3.25-1.15,3.87,3.87,0,0,0-1.91.37,1.2,1.2,0,0,0-.72,1.11c0,.88.91,1.41,2.68,1.57a16.44,16.44,0,0,1,1.81.27,7.39,7.39,0,0,1,1.62.55A2.8,2.8,0,0,1,498,262a3.61,3.61,0,0,1,.46,1.9,3.44,3.44,0,0,1-1.45,2.82,6.12,6.12,0,0,1-3.8,1.08,7.12,7.12,0,0,1-5.62-2.28l1.35-1.82a5.67,5.67,0,0,0,4.32,1.82,3.92,3.92,0,0,0,1.83-.4,1.34,1.34,0,0,0,.8-1.2,1.21,1.21,0,0,0-.69-1.17,6.26,6.26,0,0,0-2.16-.53c-3.33-.31-5-1.55-5-3.7a3.06,3.06,0,0,1,1.57-2.81,6.8,6.8,0,0,1,3.56-.93,6.88,6.88,0,0,1,4.75,1.64Z"/><path class="cls-4" d="M503,262.23a3.26,3.26,0,0,0,1.26,2.25,4.35,4.35,0,0,0,2.76.85,6,6,0,0,0,2-.36,3.85,3.85,0,0,0,1.56-1l1.67,1.62a6,6,0,0,1-2.36,1.55,8.11,8.11,0,0,1-2.94.55,6.62,6.62,0,0,1-4.83-1.77,6.35,6.35,0,0,1-1.81-4.75,6.15,6.15,0,0,1,6.47-6.42,6.19,6.19,0,0,1,4.82,1.89q1.73,1.9,1.38,5.55Zm7.52-2.17a2.92,2.92,0,0,0-1.08-2.2,4.48,4.48,0,0,0-5.05,0,3.56,3.56,0,0,0-1.34,2.2Z"/><path class="cls-4" d="M518,255.11l.18,1.62a3.82,3.82,0,0,1,3.62-1.9,4.4,4.4,0,0,1,3,1l-1.18,2.25a3.33,3.33,0,0,0-2.17-.75,3.37,3.37,0,0,0-2.37.88,3.19,3.19,0,0,0-.95,2.5v6.67h-2.58V255.11Z"/><path class="cls-4" d="M538.62,255.08l-5.23,12.4h-2.82l-5.25-12.4h2.85l1.65,4,2.17,5.72,2-5.22,1.85-4.48Z"/><path class="cls-4" d="M542.24,262.23a3.26,3.26,0,0,0,1.26,2.25,4.35,4.35,0,0,0,2.76.85,6,6,0,0,0,2-.36,3.85,3.85,0,0,0,1.56-1l1.67,1.62a6,6,0,0,1-2.36,1.55,8.11,8.11,0,0,1-2.94.55,6.62,6.62,0,0,1-4.83-1.77A6.47,6.47,0,0,1,546,254.79a6.2,6.2,0,0,1,4.82,1.89q1.73,1.9,1.38,5.55Zm7.52-2.17a2.92,2.92,0,0,0-1.08-2.2,4.48,4.48,0,0,0-5,0,3.56,3.56,0,0,0-1.34,2.2Z"/><path class="cls-4" d="M557.26,255.11l.18,1.62a3.82,3.82,0,0,1,3.62-1.9,4.4,4.4,0,0,1,3.05,1l-1.18,2.25a3.33,3.33,0,0,0-2.17-.75,3.37,3.37,0,0,0-2.37.88,3.19,3.19,0,0,0-.95,2.5v6.67h-2.58V255.11Z"/><circle class="cls-3" cx="609.87" cy="260.25" r="9.7"/><polygon class="cls-5" points="0 499.5 851.22 368.34 632.84 0 0 0 0 499.5"/><circle class="cls-4" cx="842.22" cy="362.68" r="20.27"/><circle class="cls-6" cx="837.17" cy="372.22" r="17.09"/></svg>