<svg id="Layer_1" data-name="Layer 1" xmlns="http://www.w3.org/2000/svg" viewBox="0 0 1125 1025.23"><defs><style>.cls-1,.cls-3{fill:#2bbfff;}.cls-2,.cls-9{fill:#fff;}.cls-3{font-size:23.49px;}.cls-3,.cls-9{font-family:Nexa-Bold;font-weight:700;}.cls-4{letter-spacing:-0.02em;}.cls-5{letter-spacing:-0.02em;}.cls-6{letter-spacing:0em;}.cls-7{letter-spacing:-0.03em;}.cls-8{letter-spacing:-0.02em;}.cls-9{font-size:27.61px;}.cls-10{letter-spacing:0em;}.cls-11{letter-spacing:0em;}.cls-12{letter-spacing:-0.01em;}.cls-13{letter-spacing:-0.01em;}.cls-14{letter-spacing:-0.01em;}.cls-15{letter-spacing:-0.02em;}.cls-16{letter-spacing:-0.02em;}.cls-17,.cls-18,.cls-20,.cls-21{fill:none;stroke-miterlimit:10;}.cls-17,.cls-18,.cls-21{stroke:#ff7a2b;}.cls-17{stroke-width:5px;}.cls-18{stroke-width:16.07px;}.cls-19{fill:#ff7a2b;}.cls-20{stroke:#40cbe2;stroke-width:7.86px;}.cls-21{stroke-width:7.5px;}</style></defs><title>corners</title><path class="cls-1" d="M1125,769.58,658.77,767.1a97.53,97.53,0,0,0-98,95.74h0a97.53,97.53,0,0,1-97.51,95.74H0v-960H1125Z"/><path class="cls-2" d="M354.58,373.08h-44l-7.67,17.08H289l36.49-81.33H339.7l36.49,81.33H362.36Zm-22-50.54-17.2,38.69h34.39Z"/><path class="cls-2" d="M387.46,390.16V308.83h12.9v81.33Z"/><path class="cls-2" d="M451.6,308.83a45.6,45.6,0,0,1,18,3.37,33.16,33.16,0,0,1,12.78,9.12A42.5,42.5,0,0,1,489.72,334a44.68,44.68,0,0,1,2.67,14.76A43.25,43.25,0,0,1,490.18,364a42,42,0,0,1-7.26,13.19,33.7,33.7,0,0,1-13,9.47,45.55,45.55,0,0,1-18.36,3.54H420.81V308.83Zm-17.89,68.78H451.6q13.95,0,21-8.54a29.93,29.93,0,0,0,6.86-20.39,33.9,33.9,0,0,0-3-13.24,23.71,23.71,0,0,0-9.24-10.11q-6.45-4.08-15.63-4.07H433.71Z"/><path class="cls-2" d="M556.53,326.84a19.2,19.2,0,0,0-8.31-6.57,30.29,30.29,0,0,0-11.79-2.5q-8.37,0-13.6,3.32t-5.22,9a8.13,8.13,0,0,0,5,7.79q5.05,2.43,14.7,3.83a105.51,105.51,0,0,1,12.32,2.44,47.06,47.06,0,0,1,10.11,4.12,18.81,18.81,0,0,1,7.61,7.44A22.79,22.79,0,0,1,570,366.92a21.34,21.34,0,0,1-5,14.53,27.4,27.4,0,0,1-12.32,8.19A52.16,52.16,0,0,1,536.31,392q-25,0-35-18.47L511.1,367q7.9,13.36,25.33,13.36a38.08,38.08,0,0,0,9.76-1.16,16.5,16.5,0,0,0,7.61-4.36,10.8,10.8,0,0,0,3.2-8,9.72,9.72,0,0,0-5.52-9.12q-5.52-3-15.28-4.24a94,94,0,0,1-9.59-1.63,58.76,58.76,0,0,1-8.42-2.67,23.51,23.51,0,0,1-7.15-4.18,19.17,19.17,0,0,1-4.53-6.33,21,21,0,0,1-1.8-8.89,20.22,20.22,0,0,1,10.22-18,38.84,38.84,0,0,1,10-4,45.83,45.83,0,0,1,11.15-1.34q21.74,0,30.33,13.71Z"/><path class="cls-2" d="M597.67,365.18v25h-13V308.83q6.17,0,18.77-.06t18.88-.06a33.11,33.11,0,0,1,11.5,1.92,24.07,24.07,0,0,1,8.6,5.17,32,32,0,0,1,5.75,7.49,23.34,23.34,0,0,1,2.91,8.89,41.85,41.85,0,0,1,0,9.36,24,24,0,0,1-2.85,8.94,30.29,30.29,0,0,1-5.75,7.5,25.42,25.42,0,0,1-8.66,5.23,32.43,32.43,0,0,1-11.5,2Zm0-12H622.3a16.3,16.3,0,0,0,8.89-2.38,14,14,0,0,0,5.46-6,19.05,19.05,0,0,0,0-15.69,14,14,0,0,0-5.46-6,16.3,16.3,0,0,0-8.89-2.38H597.67Z"/><path class="cls-2" d="M715.49,373.08h-44l-7.67,17.08H650l36.48-81.33h14.18l36.49,81.33H723.28Zm-22-50.54-17.19,38.69h34.39Z"/><path class="cls-2" d="M804.5,366.69V308.83h13v81.33h-9.88l-46.13-57.4v57.4H748.38V308.83h10Z"/><rect class="cls-2" x="291.75" y="227.78" width="224.71" height="32.11" rx="4.63"/><text class="cls-3" transform="translate(319.31 251.98)">WE<tspan class="cls-4" x="40.76" y="0">L</tspan><tspan class="cls-5" x="54.15" y="0">C</tspan><tspan class="cls-6" x="70.25" y="0">OME</tspan><tspan class="cls-7" x="125.79" y="0"> </tspan><tspan class="cls-8" x="130.98" y="0">T</tspan><tspan class="cls-6" x="144.75" y="0">O</tspan></text><text class="cls-9" transform="translate(291.75 440.28)">The <tspan class="cls-10" x="56.22" y="0">I</tspan><tspan class="cls-11" x="64.01" y="0">ndepende</tspan><tspan class="cls-12" x="198.6" y="0">n</tspan><tspan x="215.19" y="0">t </tspan><tspan class="cls-10" x="233.31" y="0">G</tspan><tspan x="253.69" y="0">lobal </tspan><tspan class="cls-13" x="325.79" y="0">F</tspan><tspan x="342.66" y="0">und </tspan><tspan class="cls-14" x="400.76" y="0">O</tspan><tspan x="422.85" y="0">bser</tspan><tspan class="cls-15" x="482.41" y="0">v</tspan><tspan x="497.54" y="0">e</tspan><tspan class="cls-16" x="513.62" y="0">r</tspan></text><circle class="cls-17" cx="432.75" cy="624.83" r="10.5"/><circle class="cls-18" cx="291.75" cy="951.83" r="33.75"/><circle class="cls-19" cx="993.05" cy="132.04" r="23.2"/><circle class="cls-2" cx="1016.25" cy="587.33" r="10.5"/><circle class="cls-20" cx="879" cy="385.58" r="16.5"/><circle class="cls-2" cx="138.75" cy="254.33" r="10.5"/><circle class="cls-21" cx="747" cy="822.08" r="15.75"/><circle class="cls-2" cx="627.75" cy="65.33" r="10.5"/><circle class="cls-2" cx="188.25" cy="806.33" r="10.5"/></svg>