<svg id="Layer_1" data-name="Layer 1" xmlns="http://www.w3.org/2000/svg" viewBox="0 0 1125 1025.23"><defs><style>.cls-1{fill:#2bbfff;}.cls-2{fill:#fff;}.cls-3,.cls-4,.cls-6,.cls-7{fill:none;stroke-miterlimit:10;}.cls-3,.cls-4,.cls-7{stroke:#ff7a2b;}.cls-3{stroke-width:5px;}.cls-4{stroke-width:16.07px;}.cls-5{fill:#ff7a2b;}.cls-6{stroke:#40cbe2;stroke-width:7.86px;}.cls-7{stroke-width:7.5px;}</style></defs><title>corners</title><path class="cls-1" d="M1125,769.58,658.77,767.1a97.53,97.53,0,0,0-98,95.74h0a97.53,97.53,0,0,1-97.51,95.74H0v-960H1125Z"/><path class="cls-2" d="M354.58,373.08h-44l-7.67,17.08H289l36.49-81.33H339.7l36.49,81.33H362.36Zm-22-50.54-17.2,38.69h34.39Z"/><path class="cls-2" d="M387.46,390.16V308.83h12.9v81.33Z"/><path class="cls-2" d="M451.6,308.83a45.6,45.6,0,0,1,18,3.37,33.16,33.16,0,0,1,12.78,9.12A42.5,42.5,0,0,1,489.72,334a44.68,44.68,0,0,1,2.67,14.76A43.25,43.25,0,0,1,490.18,364a42,42,0,0,1-7.26,13.19,33.7,33.7,0,0,1-13,9.47,45.55,45.55,0,0,1-18.36,3.54H420.81V308.83Zm-17.89,68.78H451.6q13.95,0,21-8.54a29.93,29.93,0,0,0,6.86-20.39,33.9,33.9,0,0,0-3-13.24,23.71,23.71,0,0,0-9.24-10.11q-6.45-4.08-15.63-4.07H433.71Z"/><path class="cls-2" d="M556.53,326.84a19.2,19.2,0,0,0-8.31-6.57,30.29,30.29,0,0,0-11.79-2.5q-8.37,0-13.6,3.32t-5.22,9a8.13,8.13,0,0,0,5,7.79q5.05,2.43,14.7,3.83a105.51,105.51,0,0,1,12.32,2.44,47.06,47.06,0,0,1,10.11,4.12,18.81,18.81,0,0,1,7.61,7.44A22.79,22.79,0,0,1,570,366.92a21.34,21.34,0,0,1-5,14.53,27.4,27.4,0,0,1-12.32,8.19A52.16,52.16,0,0,1,536.31,392q-25,0-35-18.47L511.1,367q7.9,13.36,25.33,13.36a38.08,38.08,0,0,0,9.76-1.16,16.5,16.5,0,0,0,7.61-4.36,10.8,10.8,0,0,0,3.2-8,9.72,9.72,0,0,0-5.52-9.12q-5.52-3-15.28-4.24a94,94,0,0,1-9.59-1.63,58.76,58.76,0,0,1-8.42-2.67,23.51,23.51,0,0,1-7.15-4.18,19.17,19.17,0,0,1-4.53-6.33,21,21,0,0,1-1.8-8.89,20.22,20.22,0,0,1,10.22-18,38.84,38.84,0,0,1,10-4,45.83,45.83,0,0,1,11.15-1.34q21.74,0,30.33,13.71Z"/><path class="cls-2" d="M597.67,365.18v25h-13V308.83q6.17,0,18.77-.06t18.88-.06a33.11,33.11,0,0,1,11.5,1.92,24.07,24.07,0,0,1,8.6,5.17,32,32,0,0,1,5.75,7.49,23.34,23.34,0,0,1,2.91,8.89,41.85,41.85,0,0,1,0,9.36,24,24,0,0,1-2.85,8.94,30.29,30.29,0,0,1-5.75,7.5,25.42,25.42,0,0,1-8.66,5.23,32.43,32.43,0,0,1-11.5,2Zm0-12H622.3a16.3,16.3,0,0,0,8.89-2.38,14,14,0,0,0,5.46-6,19.05,19.05,0,0,0,0-15.69,14,14,0,0,0-5.46-6,16.3,16.3,0,0,0-8.89-2.38H597.67Z"/><path class="cls-2" d="M715.49,373.08h-44l-7.67,17.08H650l36.48-81.33h14.18l36.49,81.33H723.28Zm-22-50.54-17.19,38.69h34.39Z"/><path class="cls-2" d="M804.5,366.69V308.83h13v81.33h-9.88l-46.13-57.4v57.4H748.38V308.83h10Z"/><rect class="cls-2" x="291.75" y="227.78" width="224.71" height="32.11" rx="4.63"/><path class="cls-1" d="M338.25,252h-2.32l-2.19-5.81-1.81-5.52-1.81,5.55L328,252h-2.3l-6-16.47h2.94l4.18,12.66,4.25-12.66h1.69l4.35,12.66,4.09-12.66h2.94Z"/><path class="cls-1" d="M358.76,252H346.61V235.53h12.08v2.56h-9.44v4.44h9.07V245h-9.07v4.42h9.51Z"/><path class="cls-1" d="M364.78,235.53v14h8.67V252H362.14V235.53Z"/><path class="cls-1" d="M389.38,249.86a8.44,8.44,0,0,1-6.18,2.44,10,10,0,0,1-3.86-.7,7.11,7.11,0,0,1-2.72-1.9,8.63,8.63,0,0,1-1.57-2.68,9.75,9.75,0,0,1,0-6.34,8.8,8.8,0,0,1,1.57-2.74,7.14,7.14,0,0,1,2.74-2,9.71,9.71,0,0,1,3.82-.73,8.16,8.16,0,0,1,6,2.5l-1.76,1.69a5.8,5.8,0,0,0-4.25-1.69,5.65,5.65,0,0,0-4.51,1.8,6.24,6.24,0,0,0-1.56,4.31,6.35,6.35,0,0,0,1.56,4.24,5.67,5.67,0,0,0,4.51,1.75,6.39,6.39,0,0,0,2.35-.47,6,6,0,0,0,2-1.32Z"/><path class="cls-1" d="M405.26,237.75a8.89,8.89,0,0,1,2.18,6.07,9.73,9.73,0,0,1-.52,3.21,8.92,8.92,0,0,1-1.53,2.71,6.8,6.8,0,0,1-2.65,1.89,9.3,9.3,0,0,1-3.71.7,9.16,9.16,0,0,1-3.71-.72,6.93,6.93,0,0,1-2.64-1.91,8.65,8.65,0,0,1-1.53-2.69,9.48,9.48,0,0,1-.53-3.16,8.52,8.52,0,0,1,2.37-6.2,8.15,8.15,0,0,1,6.09-2.43A7.85,7.85,0,0,1,405.26,237.75ZM393.59,246a6.51,6.51,0,0,0,1,1.93,4.83,4.83,0,0,0,1.83,1.41,6.11,6.11,0,0,0,2.59.53,5.37,5.37,0,0,0,4.35-1.73,6.46,6.46,0,0,0,1.46-4.31,7.59,7.59,0,0,0-.58-3,5.41,5.41,0,0,0-1.93-2.32,5.6,5.6,0,0,0-3.25-1,5.44,5.44,0,0,0-4.31,1.74,6.53,6.53,0,0,0-1.54,4.51A7.47,7.47,0,0,0,393.59,246Z"/><path class="cls-1" d="M424.88,239.38l-5.59,7.78h-.57l-5.52-7.78V252h-2.63V235.55h3.05l5.43,7.71,5.41-7.71h3.05V252h-2.63Z"/><path class="cls-1" d="M443.79,252H431.64V235.53h12.08v2.56h-9.45v4.44h9.07V245h-9.07v4.42h9.52Z"/><path class="cls-1" d="M456.1,237.9h-5.4v-2.37h13.44v2.37h-5.39V252H456.1Z"/><path class="cls-1" d="M479.76,237.75a8.9,8.9,0,0,1,2.19,6.07,9.74,9.74,0,0,1-.53,3.21,8.92,8.92,0,0,1-1.53,2.71,6.84,6.84,0,0,1-2.64,1.89,9.38,9.38,0,0,1-3.72.7,9.16,9.16,0,0,1-3.71-.72,6.93,6.93,0,0,1-2.64-1.91,8.65,8.65,0,0,1-1.53-2.69,9.48,9.48,0,0,1-.53-3.16,8.52,8.52,0,0,1,2.37-6.2,8.15,8.15,0,0,1,6.09-2.43A7.85,7.85,0,0,1,479.76,237.75ZM468.09,246a6.31,6.31,0,0,0,1,1.93,4.72,4.72,0,0,0,1.82,1.41,6.11,6.11,0,0,0,2.59.53,5.37,5.37,0,0,0,4.35-1.73,6.46,6.46,0,0,0,1.46-4.31,7.59,7.59,0,0,0-.58-3,5.34,5.34,0,0,0-1.93-2.32,5.6,5.6,0,0,0-3.25-1,5.44,5.44,0,0,0-4.31,1.74,6.53,6.53,0,0,0-1.54,4.51A7.47,7.47,0,0,0,468.09,246Z"/><path class="cls-2" d="M298.57,423.74h-6.35V421H308v2.79h-6.33v16.54h-3.12Z"/><path class="cls-2" d="M313.26,421v7.73a5.72,5.72,0,0,1,8.62-.48,7.28,7.28,0,0,1,1.41,4.74v7.34h-2.85V433a4,4,0,0,0-.91-2.85,3.25,3.25,0,0,0-2.51-1,3.49,3.49,0,0,0-2.7,1.17,4.17,4.17,0,0,0-1.06,2.89v7.09h-2.84V421Z"/><path class="cls-2" d="M329.08,434.54a3.63,3.63,0,0,0,1.4,2.49,4.84,4.84,0,0,0,3,.93,6.43,6.43,0,0,0,2.22-.4,4.12,4.12,0,0,0,1.73-1.06l1.85,1.8a6.9,6.9,0,0,1-2.61,1.71,9.12,9.12,0,0,1-3.24.61,7.32,7.32,0,0,1-5.35-2,7,7,0,0,1-2-5.24,6.82,6.82,0,0,1,7.15-7.1,6.82,6.82,0,0,1,5.33,2.1q1.9,2.1,1.52,6.13Zm8.32-2.4a3.26,3.26,0,0,0-1.2-2.43,5,5,0,0,0-5.58,0,3.88,3.88,0,0,0-1.48,2.43Z"/><path class="cls-2" d="M350.4,440.28V421h3.07v19.33Z"/><path class="cls-2" d="M368,440.28V433a4.08,4.08,0,0,0-1-2.86,3.48,3.48,0,0,0-2.7-1.06,3.54,3.54,0,0,0-2.74,1.19,4.19,4.19,0,0,0-1.07,2.9v7.12h-2.85V426.64h2.6l.16,2a5.93,5.93,0,0,1,4.59-2.18,5.53,5.53,0,0,1,4.21,1.74,6.65,6.65,0,0,1,1.64,4.77v7.32Z"/><path class="cls-2" d="M388.23,421v19.3h-2.67l-.17-2.15a5.13,5.13,0,0,1-4.72,2.43,6.65,6.65,0,0,1-7-7.1,7,7,0,0,1,1.92-5.23,6.86,6.86,0,0,1,5-1.87,6.54,6.54,0,0,1,2.75.65,4.36,4.36,0,0,1,2,1.78V421Zm-10.45,9.25a4.28,4.28,0,0,0-1.23,3.23,4.33,4.33,0,0,0,1.23,3.23,4.47,4.47,0,0,0,6.16,0,4.32,4.32,0,0,0,1.26-3.21,4.26,4.26,0,0,0-1.26-3.17,4.21,4.21,0,0,0-3.08-1.25A4.27,4.27,0,0,0,377.78,430.23Z"/><path class="cls-2" d="M394.22,434.54a3.63,3.63,0,0,0,1.4,2.49,4.84,4.84,0,0,0,3.05.93,6.43,6.43,0,0,0,2.22-.4,4.12,4.12,0,0,0,1.73-1.06l1.85,1.8a6.9,6.9,0,0,1-2.61,1.71,9.12,9.12,0,0,1-3.24.61,7.32,7.32,0,0,1-5.35-2,7,7,0,0,1-2-5.24,6.82,6.82,0,0,1,7.15-7.1,6.82,6.82,0,0,1,5.33,2.1q1.9,2.1,1.52,6.13Zm8.32-2.4a3.26,3.26,0,0,0-1.2-2.43,5,5,0,0,0-5.58,0,3.88,3.88,0,0,0-1.48,2.43Z"/><path class="cls-2" d="M408.17,446.61V426.67h2.68l.16,2.21a5,5,0,0,1,2.06-1.84,6.17,6.17,0,0,1,2.75-.65,6.67,6.67,0,0,1,5,2,7,7,0,0,1,1.92,5.08,7.16,7.16,0,0,1-1.88,5.11,6.57,6.57,0,0,1-5,2,7,7,0,0,1-2.75-.57A4.37,4.37,0,0,1,411,438.3v8.31Zm10.47-10a4.32,4.32,0,0,0-3.1-7.46,4.05,4.05,0,0,0-3.1,1.25,4.3,4.3,0,0,0-1.18,3.09,4.25,4.25,0,0,0,1.22,3.09,4.1,4.1,0,0,0,3.06,1.25A4.2,4.2,0,0,0,418.64,436.61Z"/><path class="cls-2" d="M427.86,434.54a3.62,3.62,0,0,0,1.39,2.49,4.85,4.85,0,0,0,3.06.93,6.52,6.52,0,0,0,2.22-.4,4.14,4.14,0,0,0,1.72-1.06l1.86,1.8A7.06,7.06,0,0,1,435.5,440a9.18,9.18,0,0,1-3.25.61,7.28,7.28,0,0,1-5.34-2,7.16,7.16,0,0,1,5.15-12.34,6.83,6.83,0,0,1,5.33,2.1c1.27,1.4,1.77,3.44,1.52,6.13Zm8.31-2.4a3.19,3.19,0,0,0-1.2-2.43,5,5,0,0,0-5.58,0,3.93,3.93,0,0,0-1.48,2.43Z"/><path class="cls-2" d="M452.13,440.28V433a4.12,4.12,0,0,0-1-2.86,3.85,3.85,0,0,0-5.44.13,4.15,4.15,0,0,0-1.08,2.9v7.12H441.8V426.64h2.6l.17,2a5.89,5.89,0,0,1,4.58-2.18,5.53,5.53,0,0,1,4.21,1.74A6.65,6.65,0,0,1,455,433v7.32Z"/><path class="cls-2" d="M472.35,421v19.3h-2.68l-.17-2.15a5.13,5.13,0,0,1-4.72,2.43,6.65,6.65,0,0,1-7-7.1,7,7,0,0,1,1.92-5.23,6.86,6.86,0,0,1,5-1.87,6.54,6.54,0,0,1,2.75.65,4.36,4.36,0,0,1,2,1.78V421Zm-10.46,9.25a4.28,4.28,0,0,0-1.23,3.23,4.33,4.33,0,0,0,1.23,3.23,4.47,4.47,0,0,0,6.16,0,4.32,4.32,0,0,0,1.26-3.21,4.26,4.26,0,0,0-1.26-3.17A4.21,4.21,0,0,0,465,429,4.27,4.27,0,0,0,461.89,430.23Z"/><path class="cls-2" d="M478.34,434.54a3.58,3.58,0,0,0,1.39,2.49,4.84,4.84,0,0,0,3,.93,6.53,6.53,0,0,0,2.23-.4,4.14,4.14,0,0,0,1.72-1.06l1.85,1.8A6.9,6.9,0,0,1,486,440a9.12,9.12,0,0,1-3.24.61,7.32,7.32,0,0,1-5.35-2,7,7,0,0,1-2-5.24,6.89,6.89,0,0,1,2-5.11,7,7,0,0,1,5.16-2,6.82,6.82,0,0,1,5.33,2.1q1.9,2.1,1.52,6.13Zm8.31-2.4a3.19,3.19,0,0,0-1.2-2.43,5,5,0,0,0-5.58,0,3.93,3.93,0,0,0-1.48,2.43Z"/><path class="cls-2" d="M502.61,440.28V433a4.08,4.08,0,0,0-1-2.86,3.48,3.48,0,0,0-2.7-1.06,3.54,3.54,0,0,0-2.74,1.19,4.15,4.15,0,0,0-1.07,2.9v7.12h-2.85V426.64h2.6l.16,2a5.93,5.93,0,0,1,4.59-2.18,5.54,5.54,0,0,1,4.21,1.74,6.69,6.69,0,0,1,1.64,4.77v7.32Z"/><path class="cls-2" d="M513.27,422.75v3.95h4v2.45h-4v6.49c0,1.5.65,2.24,2,2.24a3.93,3.93,0,0,0,1.74-.47l.83,2.43a6.66,6.66,0,0,1-2.73.61,4.4,4.4,0,0,1-3.44-1.17,5,5,0,0,1-1.2-3.64v-6.49h-2.63V426.7h2.63v-3.65Z"/><path class="cls-2" d="M541.68,425.4a6.59,6.59,0,0,0-2.41-1.53,7.91,7.91,0,0,0-2.81-.54,6.65,6.65,0,0,0-5.22,2.15,7.61,7.61,0,0,0-1.9,5.33,7.18,7.18,0,0,0,1.79,4.94,6.76,6.76,0,0,0,5.33,2,7.17,7.17,0,0,0,4.73-1.71v-3.92H535.8v-2.76h8.26v7.92a9.85,9.85,0,0,1-7.6,3.37,12.13,12.13,0,0,1-4.57-.81,8.27,8.27,0,0,1-3.19-2.21,9.72,9.72,0,0,1-1.79-3.12,11,11,0,0,1-.61-3.72,10.49,10.49,0,0,1,2.71-7.36,9.57,9.57,0,0,1,7.45-3,9.81,9.81,0,0,1,7.16,2.93Z"/><path class="cls-2" d="M550.33,421v19.3h-2.85V421Z"/><path class="cls-2" d="M565.56,428.42a7.54,7.54,0,0,1,0,10.14,7.5,7.5,0,0,1-10.2,0,7.62,7.62,0,0,1,0-10.15,6.72,6.72,0,0,1,5.07-2A6.82,6.82,0,0,1,565.56,428.42Zm-8.12,1.89a5,5,0,0,0,0,6.33,4.29,4.29,0,0,0,6.09,0,4.84,4.84,0,0,0,0-6.31,4.15,4.15,0,0,0-6,0Z"/><path class="cls-2" d="M573.38,421v7.81a4.41,4.41,0,0,1,2-1.78,6.54,6.54,0,0,1,2.75-.65,7.1,7.1,0,1,1,0,14.2,5.14,5.14,0,0,1-4.73-2.43l-.16,2.15h-2.68V421Zm1.44,9.31a4.23,4.23,0,0,0-1.27,3.17,4.32,4.32,0,0,0,1.26,3.21,4.47,4.47,0,0,0,6.17,0,4.83,4.83,0,0,0,0-6.45,4.51,4.51,0,0,0-6.17.06Z"/><path class="cls-2" d="M599,426.67h2.76v13.61h-2.71l-.13-2.21a4.32,4.32,0,0,1-2,1.91,6.09,6.09,0,0,1-2.72.66,6.83,6.83,0,0,1-5-1.87,7.09,7.09,0,0,1-2-5.31,6.79,6.79,0,0,1,2-5.2,7,7,0,0,1,5-1.9,5.86,5.86,0,0,1,2.73.67,4.54,4.54,0,0,1,1.91,1.79Zm-7.65,3.52a4.33,4.33,0,0,0-1.27,3.27,4.38,4.38,0,0,0,1.27,3.29,4.3,4.3,0,0,0,3.15,1.24,4.58,4.58,0,0,0,2.16-.49,3.59,3.59,0,0,0,1.44-1.3,6.52,6.52,0,0,0,.72-1.76,3.9,3.9,0,0,0,0-1.92,6.39,6.39,0,0,0-.72-1.76,3.45,3.45,0,0,0-1.44-1.3,4.59,4.59,0,0,0-2.16-.5A4.33,4.33,0,0,0,591.39,430.19Z"/><path class="cls-2" d="M608.62,421v19.3h-2.85V421Z"/><path class="cls-2" d="M620,440.28V421h13.67v3H623.06v5.88h10.05v2.87H623.06v7.54Z"/><path class="cls-2" d="M639,426.67V434a4,4,0,0,0,1,2.84,3.83,3.83,0,0,0,5.44-.11,4.2,4.2,0,0,0,1.06-2.92v-7.1h2.85v13.64h-2.57l-.17-2a6,6,0,0,1-4.69,2.2,5.39,5.39,0,0,1-4.16-1.73,6.83,6.83,0,0,1-1.59-4.78v-7.32Z"/><path class="cls-2" d="M663.49,440.28V433a4.08,4.08,0,0,0-1-2.86,3.5,3.5,0,0,0-2.71-1.06,3.54,3.54,0,0,0-2.73,1.19,4.15,4.15,0,0,0-1.08,2.9v7.12h-2.84V426.64h2.59l.17,2a5.93,5.93,0,0,1,4.59-2.18,5.54,5.54,0,0,1,4.21,1.74,6.69,6.69,0,0,1,1.64,4.77v7.32Z"/><path class="cls-2" d="M683.7,421v19.3H681l-.16-2.15a5.14,5.14,0,0,1-4.73,2.43,6.66,6.66,0,0,1-7-7.1,6.53,6.53,0,0,1,6.91-7.1,6.54,6.54,0,0,1,2.75.65,4.41,4.41,0,0,1,2,1.78V421Zm-10.45,9.25a4.28,4.28,0,0,0-1.23,3.23,4.33,4.33,0,0,0,1.23,3.23,4.47,4.47,0,0,0,6.16,0,4.31,4.31,0,0,0,1.25-3.21,4.4,4.4,0,0,0-7.41-3.23Z"/><path class="cls-2" d="M711,423.56a10.49,10.49,0,0,1,2.57,7.14,11.22,11.22,0,0,1-.63,3.77,10.11,10.11,0,0,1-1.79,3.19,7.93,7.93,0,0,1-3.11,2.22,11,11,0,0,1-4.36.82,10.88,10.88,0,0,1-4.37-.84,8.46,8.46,0,0,1-3.1-2.25,10.26,10.26,0,0,1-1.8-3.17,11.11,11.11,0,0,1-.62-3.71,10,10,0,0,1,2.79-7.28,9.54,9.54,0,0,1,7.15-2.86A9.24,9.24,0,0,1,711,423.56Zm-13.72,9.75a7.54,7.54,0,0,0,1.21,2.27,5.52,5.52,0,0,0,2.14,1.65,7.07,7.07,0,0,0,3,.62,6.29,6.29,0,0,0,5.11-2,7.58,7.58,0,0,0,1.71-5.06,8.82,8.82,0,0,0-.68-3.48,6.25,6.25,0,0,0-2.26-2.72,6.62,6.62,0,0,0-3.83-1.15,6.43,6.43,0,0,0-5.07,2,7.75,7.75,0,0,0-1.8,5.31A8.73,8.73,0,0,0,697.24,433.31Z"/><path class="cls-2" d="M719.38,421v7.81a4.36,4.36,0,0,1,2-1.78,6.5,6.5,0,0,1,2.75-.65,7.1,7.1,0,1,1-.06,14.2,5.13,5.13,0,0,1-4.72-2.43l-.17,2.15h-2.68V421Zm1.43,9.31a4.26,4.26,0,0,0-1.27,3.17,4.32,4.32,0,0,0,1.26,3.21,4.24,4.24,0,0,0,3.11,1.24,4.19,4.19,0,0,0,3.06-1.23,4.32,4.32,0,0,0,1.25-3.22,4.36,4.36,0,0,0-7.41-3.17Z"/><path class="cls-2" d="M742.79,430a5.06,5.06,0,0,0-3.58-1.27,4.2,4.2,0,0,0-2.12.4,1.35,1.35,0,0,0-.79,1.23c0,1,1,1.55,3,1.74a17,17,0,0,1,2,.29,8.9,8.9,0,0,1,1.8.61,3.15,3.15,0,0,1,1.46,1.28,4,4,0,0,1,.51,2.1,3.79,3.79,0,0,1-1.6,3.12,6.82,6.82,0,0,1-4.2,1.19,7.9,7.9,0,0,1-6.21-2.51l1.49-2a6.28,6.28,0,0,0,4.78,2,4.26,4.26,0,0,0,2-.45,1.47,1.47,0,0,0,.89-1.32,1.33,1.33,0,0,0-.76-1.3,6.8,6.8,0,0,0-2.39-.58q-5.52-.53-5.55-4.09a3.4,3.4,0,0,1,1.72-3.11,7.52,7.52,0,0,1,3.94-1,7.62,7.62,0,0,1,5.25,1.82Z"/><path class="cls-2" d="M750,434.54a3.6,3.6,0,0,0,1.4,2.49,4.82,4.82,0,0,0,3.05.93,6.47,6.47,0,0,0,2.22-.4,4.19,4.19,0,0,0,1.73-1.06l1.85,1.8a6.9,6.9,0,0,1-2.61,1.71,9.13,9.13,0,0,1-3.25.61,7.3,7.3,0,0,1-5.34-2,7.16,7.16,0,0,1,5.15-12.34,6.83,6.83,0,0,1,5.33,2.1q1.9,2.1,1.52,6.13Zm8.31-2.4a3.19,3.19,0,0,0-1.2-2.43,5,5,0,0,0-5.58,0,3.91,3.91,0,0,0-1.47,2.43Z"/><path class="cls-2" d="M766.6,426.67l.19,1.79a4.22,4.22,0,0,1,4-2.1,4.86,4.86,0,0,1,3.37,1.16L772.87,430a3.75,3.75,0,0,0-2.41-.83,3.69,3.69,0,0,0-2.62,1,3.55,3.55,0,0,0-1.05,2.76v7.37H764V426.67Z"/><path class="cls-2" d="M789.35,426.64l-5.77,13.7h-3.12l-5.8-13.7h3.15l1.82,4.39,2.4,6.33,2.16-5.78,2-4.94Z"/><path class="cls-2" d="M793.35,434.54a3.63,3.63,0,0,0,1.4,2.49,4.84,4.84,0,0,0,3,.93,6.43,6.43,0,0,0,2.22-.4,4.12,4.12,0,0,0,1.73-1.06l1.85,1.8A6.9,6.9,0,0,1,801,440a9.12,9.12,0,0,1-3.24.61,7.32,7.32,0,0,1-5.35-2,7,7,0,0,1-2-5.24,6.82,6.82,0,0,1,7.15-7.1,6.82,6.82,0,0,1,5.33,2.1q1.9,2.1,1.52,6.13Zm8.32-2.4a3.26,3.26,0,0,0-1.2-2.43,5,5,0,0,0-5.58,0,3.88,3.88,0,0,0-1.48,2.43Z"/><path class="cls-2" d="M810,426.67l.19,1.79a4.24,4.24,0,0,1,4-2.1,4.89,4.89,0,0,1,3.37,1.16l-1.3,2.49a4,4,0,0,0-5,.14,3.55,3.55,0,0,0-1.05,2.76v7.37H807.3V426.67Z"/><circle class="cls-3" cx="432.75" cy="624.83" r="10.5"/><circle class="cls-4" cx="291.75" cy="951.83" r="33.75"/><circle class="cls-5" cx="993.05" cy="132.04" r="23.2"/><circle class="cls-2" cx="1016.25" cy="587.33" r="10.5"/><circle class="cls-6" cx="879" cy="385.58" r="16.5"/><circle class="cls-2" cx="138.75" cy="254.33" r="10.5"/><circle class="cls-7" cx="747" cy="822.08" r="15.75"/><circle class="cls-2" cx="627.75" cy="65.33" r="10.5"/><circle class="cls-2" cx="188.25" cy="806.33" r="10.5"/></svg>