<?xml version="1.0" encoding="utf-8"?>
<!-- Generator: Adobe Illustrator 24.0.1, SVG Export Plug-In . SVG Version: 6.00 Build 0)  -->
<svg version="1.1" id="Layer_1" xmlns="http://www.w3.org/2000/svg" xmlns:xlink="http://www.w3.org/1999/xlink" x="0px" y="0px"
	 viewBox="0 0 806 510" style="enable-background:new 0 0 806 510;" xml:space="preserve">
<style type="text/css">
	.st0{opacity:0.96;clip-path:url(#SVGID_2_);fill:#42AEEF;enable-background:new    ;}
	.st1{clip-path:url(#SVGID_4_);}
	.st2{clip-path:url(#SVGID_6_);}
	.st3{opacity:0.5;}
	.st4{fill:#FFFFFF;}
	.st5{fill:none;stroke:#FFFFFF;stroke-width:2.1221;stroke-miterlimit:10;}
	.st6{opacity:0.8;}
	.st7{fill:none;stroke:#FFFFFF;stroke-width:0.5;stroke-miterlimit:9.9999;}
	.st8{fill:none;stroke:#FFFFFF;stroke-width:0.6136;stroke-miterlimit:9.9999;}
	.st9{fill:none;stroke:#FFFFFF;stroke-width:0.7273;stroke-miterlimit:9.9999;}
	.st10{fill:none;stroke:#FFFFFF;stroke-width:0.8409;stroke-miterlimit:9.9999;}
	.st11{fill:none;stroke:#FFFFFF;stroke-width:0.9545;stroke-miterlimit:9.9999;}
	.st12{fill:none;stroke:#FFFFFF;stroke-width:1.0682;stroke-miterlimit:9.9999;}
	.st13{fill:none;stroke:#FFFFFF;stroke-width:1.1818;stroke-miterlimit:9.9999;}
	.st14{fill:none;stroke:#FFFFFF;stroke-width:1.2955;stroke-miterlimit:9.9999;}
	.st15{fill:none;stroke:#FFFFFF;stroke-width:1.4091;stroke-miterlimit:9.9999;}
	.st16{fill:none;stroke:#FFFFFF;stroke-width:1.5227;stroke-miterlimit:9.9999;}
	.st17{fill:none;stroke:#FFFFFF;stroke-width:1.6364;stroke-miterlimit:9.9999;}
	.st18{fill:none;stroke:#FFFFFF;stroke-width:1.75;stroke-miterlimit:9.9999;}
	.st19{fill:none;stroke:#FFFFFF;stroke-width:1.8636;stroke-miterlimit:9.9999;}
	.st20{fill:none;stroke:#FFFFFF;stroke-width:1.9773;stroke-miterlimit:9.9999;}
	.st21{fill:none;stroke:#FFFFFF;stroke-width:2.0909;stroke-miterlimit:9.9998;}
	.st22{fill:none;stroke:#FFFFFF;stroke-width:2.2045;stroke-miterlimit:9.9998;}
	.st23{fill:none;stroke:#FFFFFF;stroke-width:2.3182;stroke-miterlimit:9.9999;}
	.st24{fill:none;stroke:#FFFFFF;stroke-width:2.4318;stroke-miterlimit:10;}
	.st25{fill:none;stroke:#FFFFFF;stroke-width:2.5456;stroke-miterlimit:10.0004;}
	.st26{fill:none;stroke:#FFFFFF;stroke-width:2.6591;stroke-miterlimit:10.0001;}
	.st27{fill:none;stroke:#FFFFFF;stroke-width:2.7727;stroke-miterlimit:9.9999;}
	.st28{fill:none;stroke:#FFFFFF;stroke-width:2.8864;stroke-miterlimit:9.9999;}
	.st29{fill:none;stroke:#FFFFFF;stroke-width:2.9999;stroke-miterlimit:9.9996;}
	.st30{opacity:0.79;}
	.st31{fill:none;stroke:#FFFFFF;stroke-width:0.5;stroke-miterlimit:9.9998;}
	.st32{fill:none;stroke:#FFFFFF;stroke-width:0.6667;stroke-miterlimit:9.9999;}
	.st33{fill:none;stroke:#FFFFFF;stroke-width:0.8333;stroke-miterlimit:9.9998;}
	.st34{fill:none;stroke:#FFFFFF;stroke-miterlimit:9.9999;}
	.st35{fill:none;stroke:#FFFFFF;stroke-width:1.1667;stroke-miterlimit:9.9999;}
	.st36{fill:none;stroke:#FFFFFF;stroke-width:1.3333;stroke-miterlimit:9.9999;}
	.st37{fill:none;stroke:#FFFFFF;stroke-width:1.5;stroke-miterlimit:9.9999;}
	.st38{fill:none;stroke:#FFFFFF;stroke-width:1.6667;stroke-miterlimit:9.9999;}
	.st39{fill:none;stroke:#FFFFFF;stroke-width:1.8333;stroke-miterlimit:9.9999;}
	.st40{fill:none;stroke:#FFFFFF;stroke-width:2.0001;stroke-miterlimit:10.0003;}
	.st41{fill:none;stroke:#FFFFFF;stroke-width:2.1666;stroke-miterlimit:9.9995;}
	.st42{fill:none;stroke:#FFFFFF;stroke-width:2.3333;stroke-miterlimit:10.0002;}
	.st43{fill:none;stroke:#FFFFFF;stroke-width:2.4999;stroke-miterlimit:9.9997;}
	.st44{fill:none;stroke:#FFFFFF;stroke-width:2.6667;stroke-miterlimit:10;}
	.st45{fill:none;stroke:#FFFFFF;stroke-width:2.8333;stroke-miterlimit:9.9999;}
	.st46{fill:none;stroke:#FFFFFF;stroke-width:3;stroke-miterlimit:10;}
	.st47{opacity:0.89;}
	.st48{fill:none;stroke:#FFFFFF;stroke-width:0.8127;stroke-linecap:round;stroke-linejoin:round;stroke-dasharray:0,4.3252;}
	.st49{fill:none;stroke:#FFFFFF;stroke-width:0.9129;stroke-linecap:round;stroke-linejoin:round;stroke-dasharray:0,4.2555;}
	.st50{fill:none;stroke:#FFFFFF;stroke-width:1.013;stroke-linecap:round;stroke-linejoin:round;stroke-dasharray:0,4.1801;}
	.st51{fill:none;stroke:#FFFFFF;stroke-width:1.1132;stroke-linecap:round;stroke-linejoin:round;stroke-dasharray:0,4.0982;}
	
		.st52{fill:none;stroke:#FFFFFF;stroke-width:1.2134;stroke-linecap:round;stroke-linejoin:round;stroke-miterlimit:4;stroke-dasharray:0,4.009;}
	.st53{fill:none;stroke:#FFFFFF;stroke-width:1.3135;stroke-linecap:round;stroke-linejoin:round;stroke-dasharray:0,3.9115;}
	.st54{fill:none;stroke:#FFFFFF;stroke-width:1.4137;stroke-linecap:round;stroke-linejoin:round;stroke-dasharray:0,3.8357;}
	.st55{fill:none;stroke:#FFFFFF;stroke-width:1.5138;stroke-linecap:round;stroke-linejoin:round;stroke-dasharray:0,3.7506;}
	.st56{fill:none;stroke:#FFFFFF;stroke-width:1.614;stroke-linecap:round;stroke-linejoin:round;stroke-dasharray:0,3.6539;}
	.st57{fill:none;stroke:#FFFFFF;stroke-width:1.7142;stroke-linecap:round;stroke-linejoin:round;stroke-dasharray:0,3.5797;}
	.st58{fill:none;stroke:#FFFFFF;stroke-width:1.8143;stroke-linecap:round;stroke-linejoin:round;stroke-dasharray:0,3.4929;}
	.st59{fill:none;stroke:#FFFFFF;stroke-width:1.9145;stroke-linecap:round;stroke-linejoin:round;stroke-dasharray:0,3.4307;}
	.st60{fill:none;stroke:#FFFFFF;stroke-width:2.0147;stroke-linecap:round;stroke-linejoin:round;stroke-dasharray:0,3.3533;}
	.st61{fill:none;stroke:#FFFFFF;stroke-width:2.1148;stroke-linecap:round;stroke-linejoin:round;stroke-dasharray:0,3.254;}
	.st62{fill:none;stroke:#FFFFFF;stroke-width:2.215;stroke-linecap:round;stroke-linejoin:round;stroke-dasharray:0,3.1801;}
	.st63{fill:none;stroke:#FFFFFF;stroke-width:2.3152;stroke-linecap:round;stroke-linejoin:round;stroke-dasharray:0,3.0725;}
	.st64{opacity:0.81;}
	.st65{fill:none;stroke:#FFFFFF;stroke-width:1.0531;stroke-linecap:round;stroke-linejoin:round;stroke-dasharray:0,5.6283;}
	.st66{fill:none;stroke:#FFFFFF;stroke-width:1.1202;stroke-linecap:round;stroke-linejoin:round;stroke-dasharray:0,5.5717;}
	.st67{fill:none;stroke:#FFFFFF;stroke-width:1.1873;stroke-linecap:round;stroke-linejoin:round;stroke-dasharray:0,5.513;}
	.st68{fill:none;stroke:#FFFFFF;stroke-width:1.2545;stroke-linecap:round;stroke-linejoin:round;stroke-dasharray:0,5.452;}
	.st69{fill:none;stroke:#FFFFFF;stroke-width:1.3216;stroke-linecap:round;stroke-linejoin:round;stroke-dasharray:0,5.3888;}
	.st70{fill:none;stroke:#FFFFFF;stroke-width:1.3887;stroke-linecap:round;stroke-linejoin:round;stroke-dasharray:0,5.3492;}
	.st71{fill:none;stroke:#FFFFFF;stroke-width:1.4559;stroke-linecap:round;stroke-linejoin:round;stroke-dasharray:0,5.281;}
	.st72{fill:none;stroke:#FFFFFF;stroke-width:1.523;stroke-linecap:round;stroke-linejoin:round;stroke-dasharray:0,5.2368;}
	.st73{fill:none;stroke:#FFFFFF;stroke-width:1.5902;stroke-linecap:round;stroke-linejoin:round;stroke-dasharray:0,5.1631;}
	.st74{fill:none;stroke:#FFFFFF;stroke-width:1.6573;stroke-linecap:round;stroke-linejoin:round;stroke-dasharray:0,5.1136;}
	.st75{fill:none;stroke:#FFFFFF;stroke-width:1.7244;stroke-linecap:round;stroke-linejoin:round;stroke-dasharray:0,5.0613;}
	.st76{fill:none;stroke:#FFFFFF;stroke-width:1.7916;stroke-linecap:round;stroke-linejoin:round;stroke-dasharray:0,5.0061;}
	.st77{fill:none;stroke:#FFFFFF;stroke-width:1.8587;stroke-linecap:round;stroke-linejoin:round;stroke-dasharray:0,4.9476;}
	.st78{fill:none;stroke:#FFFFFF;stroke-width:1.9258;stroke-linecap:round;stroke-linejoin:round;stroke-dasharray:0,4.8857;}
	.st79{fill:none;stroke:#FFFFFF;stroke-width:1.993;stroke-linecap:round;stroke-linejoin:round;stroke-dasharray:0,4.85;}
	.st80{fill:none;stroke:#FFFFFF;stroke-width:2.0601;stroke-linecap:round;stroke-linejoin:round;stroke-dasharray:0,4.7804;}
	.st81{fill:none;stroke:#FFFFFF;stroke-width:2.1272;stroke-linecap:round;stroke-linejoin:round;stroke-dasharray:0,4.7378;}
	.st82{fill:none;stroke:#FFFFFF;stroke-width:2.1944;stroke-linecap:round;stroke-linejoin:round;stroke-dasharray:0,4.6591;}
	.st83{fill:none;stroke:#FFFFFF;stroke-width:2.2615;stroke-linecap:round;stroke-linejoin:round;stroke-dasharray:0,4.6079;}
	.st84{fill:none;stroke:#FFFFFF;stroke-width:2.3286;stroke-linecap:round;stroke-linejoin:round;stroke-dasharray:0,4.552;}
	.st85{fill:none;stroke:#FFFFFF;stroke-width:2.3958;stroke-linecap:round;stroke-linejoin:round;stroke-dasharray:0,4.4907;}
	.st86{fill:none;stroke:#FFFFFF;stroke-width:2.4629;stroke-linecap:round;stroke-linejoin:round;stroke-dasharray:0,4.4606;}
	.st87{fill:none;stroke:#FFFFFF;stroke-width:2.5301;stroke-linecap:round;stroke-linejoin:round;stroke-dasharray:0,4.3874;}
	.st88{fill:none;stroke:#FFFFFF;stroke-width:2.5972;stroke-linecap:round;stroke-linejoin:round;stroke-dasharray:0,4.3467;}
	.st89{fill:none;stroke:#FFFFFF;stroke-width:2.6643;stroke-linecap:round;stroke-linejoin:round;stroke-dasharray:0,4.3;}
	.st90{fill:none;stroke:#FFFFFF;stroke-width:2.7315;stroke-linecap:round;stroke-linejoin:round;stroke-dasharray:0,4.2003;}
	.st91{fill:none;stroke:#FFFFFF;stroke-width:2.7986;stroke-linecap:round;stroke-linejoin:round;stroke-dasharray:0,4.1831;}
	.st92{fill:none;stroke:#FFFFFF;stroke-width:2.8657;stroke-linecap:round;stroke-linejoin:round;stroke-dasharray:0,4.1096;}
	
		.st93{fill:none;stroke:#FFFFFF;stroke-width:2.9329;stroke-linecap:round;stroke-linejoin:round;stroke-miterlimit:4;stroke-dasharray:0,4.0791;}
	.st94{fill:none;stroke:#FFFFFF;stroke-width:3;stroke-linecap:round;stroke-linejoin:round;stroke-dasharray:0,3.9765;}
	.st95{opacity:0.77;}
	.st96{clip-path:url(#SVGID_8_);}
	.st97{fill:none;stroke:#FFFFFF;stroke-width:2;stroke-miterlimit:10;}
	.st98{clip-path:url(#SVGID_10_);}
	.st99{opacity:0.72;}
	.st100{opacity:0.5;fill:none;stroke:#FFFFFF;stroke-width:49.999;stroke-miterlimit:9.9998;enable-background:new    ;}
	.st101{opacity:0.5;fill:none;stroke:#FFFFFF;stroke-width:29.9994;stroke-miterlimit:9.9998;enable-background:new    ;}
	.st102{opacity:0.5;fill:url(#SVGID_11_);enable-background:new    ;}
	.st103{opacity:0.5;fill:url(#SVGID_12_);enable-background:new    ;}
	.st104{opacity:0.5;fill:url(#SVGID_13_);enable-background:new    ;}
	.st105{opacity:0.5;fill:url(#SVGID_14_);enable-background:new    ;}
	.st106{opacity:0.5;fill:url(#SVGID_15_);enable-background:new    ;}
	.st107{opacity:0.5;fill:url(#SVGID_16_);enable-background:new    ;}
	.st108{opacity:0.5;fill:url(#SVGID_17_);enable-background:new    ;}
	.st109{opacity:0.49;}
	.st110{fill:none;stroke:#FFFFFF;stroke-width:2;stroke-linecap:round;stroke-linejoin:round;stroke-miterlimit:10;}
</style>
<g>
	<g>
		<g>
			<defs>
				<rect id="SVGID_1_" width="806" height="450"/>
			</defs>
			<clipPath id="SVGID_2_">
				<use xlink:href="#SVGID_1_"  style="overflow:visible;"/>
			</clipPath>
			<path class="st0" d="M435,267c229-12,287-64.9,371,65.1V-7.1H0v173.8C43,33.5,239.4,277.3,435,267z"/>
		</g>
	</g>
	<g>
		<g>
			<defs>
				<rect id="SVGID_3_" width="806" height="510"/>
			</defs>
			<clipPath id="SVGID_4_">
				<use xlink:href="#SVGID_3_"  style="overflow:visible;"/>
			</clipPath>
			<g class="st1">
				<g>
					<g>
						<defs>
							<rect id="SVGID_5_" x="-202" y="-76.5" width="1008.3" height="672.2"/>
						</defs>
						<clipPath id="SVGID_6_">
							<use xlink:href="#SVGID_5_"  style="overflow:visible;"/>
						</clipPath>
						<g class="st2">
							<g>
								<g class="st3">
									<path class="st4" d="M-163.4-45.1c0,1.3-1.1,2.4-2.4,2.4c-1.3,0-2.4-1.1-2.4-2.4s1.1-2.4,2.4-2.4S-163.4-46.4-163.4-45.1z"
										/>
									<circle class="st4" cx="-145.2" cy="-45.1" r="2.4"/>
									<circle class="st4" cx="-124.7" cy="-45.1" r="2.4"/>
									<path class="st4" d="M-101.7-45.1c0,1.3-1.1,2.4-2.4,2.4s-2.4-1.1-2.4-2.4s1.1-2.4,2.4-2.4S-101.7-46.4-101.7-45.1z"/>
									<circle class="st4" cx="-83.5" cy="-45.1" r="2.4"/>
									<circle class="st4" cx="-62.9" cy="-45.1" r="2.4"/>
									<circle class="st4" cx="-42.4" cy="-45.1" r="2.4"/>
									<circle class="st4" cx="-21.8" cy="-45.1" r="2.4"/>
									<path class="st4" d="M-163.4-24.5c0,1.3-1.1,2.4-2.4,2.4c-1.3,0-2.4-1.1-2.4-2.4s1.1-2.4,2.4-2.4S-163.4-25.8-163.4-24.5z"
										/>
									<circle class="st4" cx="-145.2" cy="-24.5" r="2.4"/>
									<circle class="st4" cx="-124.7" cy="-24.5" r="2.4"/>
									<path class="st4" d="M-101.7-24.5c0,1.3-1.1,2.4-2.4,2.4s-2.4-1.1-2.4-2.4s1.1-2.4,2.4-2.4S-101.7-25.8-101.7-24.5z"/>
									<circle class="st4" cx="-83.5" cy="-24.5" r="2.4"/>
									<circle class="st4" cx="-62.9" cy="-24.5" r="2.4"/>
									<circle class="st4" cx="-42.4" cy="-24.5" r="2.4"/>
									<circle class="st4" cx="-21.8" cy="-24.5" r="2.4"/>
									<path class="st4" d="M-163.4-3.9c0,1.3-1.1,2.4-2.4,2.4c-1.3,0-2.4-1.1-2.4-2.4s1.1-2.4,2.4-2.4S-163.4-5.2-163.4-3.9z"/>
									<circle class="st4" cx="-145.2" cy="-3.9" r="2.4"/>
									<circle class="st4" cx="-124.7" cy="-3.9" r="2.4"/>
									<path class="st4" d="M-101.7-3.9c0,1.3-1.1,2.4-2.4,2.4s-2.4-1.1-2.4-2.4s1.1-2.4,2.4-2.4S-101.7-5.2-101.7-3.9z"/>
									<circle class="st4" cx="-83.5" cy="-3.9" r="2.4"/>
									<circle class="st4" cx="-62.9" cy="-3.9" r="2.4"/>
									<circle class="st4" cx="-42.4" cy="-3.9" r="2.4"/>
									<circle class="st4" cx="-21.8" cy="-3.9" r="2.4"/>
									<path class="st4" d="M-163.4,16.6c0,1.3-1.1,2.4-2.4,2.4c-1.3,0-2.4-1.1-2.4-2.4s1.1-2.4,2.4-2.4
										C-164.5,14.3-163.4,15.3-163.4,16.6z"/>
									<circle class="st4" cx="-145.2" cy="16.6" r="2.4"/>
									<circle class="st4" cx="-124.7" cy="16.6" r="2.4"/>
									<path class="st4" d="M-101.7,16.6c0,1.3-1.1,2.4-2.4,2.4s-2.4-1.1-2.4-2.4s1.1-2.4,2.4-2.4
										C-102.8,14.3-101.7,15.3-101.7,16.6z"/>
									<circle class="st4" cx="-83.5" cy="16.6" r="2.4"/>
									<circle class="st4" cx="-62.9" cy="16.6" r="2.4"/>
									<circle class="st4" cx="-42.4" cy="16.6" r="2.4"/>
									<circle class="st4" cx="-21.8" cy="16.6" r="2.4"/>
									<path class="st4" d="M-163.4,37.2c0,1.3-1.1,2.4-2.4,2.4c-1.3,0-2.4-1.1-2.4-2.4s1.1-2.4,2.4-2.4S-163.4,35.9-163.4,37.2z"
										/>
									<circle class="st4" cx="-145.2" cy="37.2" r="2.4"/>
									<circle class="st4" cx="-124.7" cy="37.2" r="2.4"/>
									<path class="st4" d="M-101.7,37.2c0,1.3-1.1,2.4-2.4,2.4s-2.4-1.1-2.4-2.4s1.1-2.4,2.4-2.4S-101.7,35.9-101.7,37.2z"/>
									<circle class="st4" cx="-83.5" cy="37.2" r="2.4"/>
									<circle class="st4" cx="-62.9" cy="37.2" r="2.4"/>
									<circle class="st4" cx="-42.4" cy="37.2" r="2.4"/>
									<circle class="st4" cx="-21.8" cy="37.2" r="2.4"/>
									<path class="st4" d="M-163.4,57.8c0,1.3-1.1,2.4-2.4,2.4c-1.3,0-2.4-1.1-2.4-2.4s1.1-2.4,2.4-2.4S-163.4,56.5-163.4,57.8z"
										/>
									<circle class="st4" cx="-145.2" cy="57.8" r="2.4"/>
									<circle class="st4" cx="-124.7" cy="57.8" r="2.4"/>
									<path class="st4" d="M-101.7,57.8c0,1.3-1.1,2.4-2.4,2.4s-2.4-1.1-2.4-2.4s1.1-2.4,2.4-2.4S-101.7,56.5-101.7,57.8z"/>
									<circle class="st4" cx="-83.5" cy="57.8" r="2.4"/>
									<circle class="st4" cx="-62.9" cy="57.8" r="2.4"/>
									<circle class="st4" cx="-42.4" cy="57.8" r="2.4"/>
									<circle class="st4" cx="-21.8" cy="57.8" r="2.4"/>
								</g>
								<g class="st3">
									<circle class="st4" cx="653.8" cy="312.6" r="2.4"/>
									<circle class="st4" cx="653.8" cy="333.2" r="2.4"/>
									<circle class="st4" cx="653.8" cy="353.8" r="2.4"/>
									<circle class="st4" cx="653.8" cy="374.4" r="2.4"/>
									<circle class="st4" cx="653.8" cy="395" r="2.4"/>
									<circle class="st4" cx="653.8" cy="415.5" r="2.4"/>
									<circle class="st4" cx="653.8" cy="436.1" r="2.4"/>
									<path class="st4" d="M653.8,459.1c-1.3,0-2.4-1.1-2.4-2.4s1.1-2.4,2.4-2.4s2.4,1.1,2.4,2.4S655.1,459.1,653.8,459.1z"/>
									<path class="st4" d="M633.2,315c-1.3,0-2.4-1.1-2.4-2.4s1.1-2.4,2.4-2.4s2.4,1.1,2.4,2.4S634.6,315,633.2,315z"/>
									<path class="st4" d="M633.2,335.6c-1.3,0-2.4-1.1-2.4-2.4s1.1-2.4,2.4-2.4s2.4,1.1,2.4,2.4S634.6,335.6,633.2,335.6z"/>
									<path class="st4" d="M633.2,356.2c-1.3,0-2.4-1.1-2.4-2.4s1.1-2.4,2.4-2.4s2.4,1.1,2.4,2.4S634.6,356.2,633.2,356.2z"/>
									<path class="st4" d="M633.2,376.8c-1.3,0-2.4-1.1-2.4-2.4s1.1-2.4,2.4-2.4s2.4,1.1,2.4,2.4S634.6,376.8,633.2,376.8z"/>
									<path class="st4" d="M633.2,397.3c-1.3,0-2.4-1.1-2.4-2.4s1.1-2.4,2.4-2.4s2.4,1.1,2.4,2.4
										C635.6,396.3,634.6,397.3,633.2,397.3z"/>
									<path class="st4" d="M633.2,417.9c-1.3,0-2.4-1.1-2.4-2.4s1.1-2.4,2.4-2.4s2.4,1.1,2.4,2.4S634.6,417.9,633.2,417.9z"/>
									<path class="st4" d="M633.2,438.5c-1.3,0-2.4-1.1-2.4-2.4s1.1-2.4,2.4-2.4s2.4,1.1,2.4,2.4
										C635.6,437.4,634.6,438.5,633.2,438.5z"/>
									<path class="st4" d="M633.2,459.1c-1.3,0-2.4-1.1-2.4-2.4s1.1-2.4,2.4-2.4s2.4,1.1,2.4,2.4S634.6,459.1,633.2,459.1z"/>
									<circle class="st4" cx="612.7" cy="312.6" r="2.4"/>
									<circle class="st4" cx="612.7" cy="333.2" r="2.4"/>
									<circle class="st4" cx="612.7" cy="353.8" r="2.4"/>
									<circle class="st4" cx="612.7" cy="374.4" r="2.4"/>
									<circle class="st4" cx="612.7" cy="395" r="2.4"/>
									<circle class="st4" cx="612.7" cy="415.5" r="2.4"/>
									<circle class="st4" cx="612.7" cy="436.1" r="2.4"/>
									<path class="st4" d="M612.7,459.1c-1.3,0-2.4-1.1-2.4-2.4s1.1-2.4,2.4-2.4s2.4,1.1,2.4,2.4S614,459.1,612.7,459.1z"/>
									<circle class="st4" cx="592.1" cy="312.6" r="2.4"/>
									<circle class="st4" cx="592.1" cy="333.2" r="2.4"/>
									<circle class="st4" cx="592.1" cy="353.8" r="2.4"/>
									<circle class="st4" cx="592.1" cy="374.4" r="2.4"/>
									<circle class="st4" cx="592.1" cy="395" r="2.4"/>
									<circle class="st4" cx="592.1" cy="415.5" r="2.4"/>
									<circle class="st4" cx="592.1" cy="436.1" r="2.4"/>
									<path class="st4" d="M592.1,459.1c-1.3,0-2.4-1.1-2.4-2.4s1.1-2.4,2.4-2.4s2.4,1.1,2.4,2.4S593.4,459.1,592.1,459.1z"/>
									<circle class="st4" cx="571.5" cy="312.6" r="2.4"/>
									<circle class="st4" cx="571.5" cy="333.2" r="2.4"/>
									<circle class="st4" cx="571.5" cy="353.8" r="2.4"/>
									<circle class="st4" cx="571.5" cy="374.4" r="2.4"/>
									<circle class="st4" cx="571.5" cy="395" r="2.4"/>
									<circle class="st4" cx="571.5" cy="415.5" r="2.4"/>
									<circle class="st4" cx="571.5" cy="436.1" r="2.4"/>
									<path class="st4" d="M571.5,459.1c-1.3,0-2.4-1.1-2.4-2.4s1.1-2.4,2.4-2.4s2.4,1.1,2.4,2.4S572.8,459.1,571.5,459.1z"/>
									<circle class="st4" cx="550.9" cy="312.6" r="2.4"/>
									<circle class="st4" cx="550.9" cy="333.2" r="2.4"/>
									<circle class="st4" cx="550.9" cy="353.8" r="2.4"/>
									<circle class="st4" cx="550.9" cy="374.4" r="2.4"/>
									<circle class="st4" cx="550.9" cy="395" r="2.4"/>
									<circle class="st4" cx="550.9" cy="415.5" r="2.4"/>
									<circle class="st4" cx="550.9" cy="436.1" r="2.4"/>
									<path class="st4" d="M550.9,459.1c-1.3,0-2.4-1.1-2.4-2.4s1.1-2.4,2.4-2.4s2.4,1.1,2.4,2.4S552.3,459.1,550.9,459.1z"/>
								</g>
								<g class="st3">
									<path class="st4" d="M391.1,4.6c0,1.3-1.1,2.4-2.4,2.4s-2.4-1.1-2.4-2.4s1.1-2.4,2.4-2.4C390.1,2.2,391.1,3.2,391.1,4.6z"
										/>
									<path class="st4" d="M411.7,4.6c0,1.3-1.1,2.4-2.4,2.4s-2.4-1.1-2.4-2.4s1.1-2.4,2.4-2.4C410.6,2.2,411.7,3.2,411.7,4.6z"
										/>
									<path class="st4" d="M432.3,4.6c0,1.3-1.1,2.4-2.4,2.4s-2.4-1.1-2.4-2.4s1.1-2.4,2.4-2.4C431.2,2.2,432.3,3.2,432.3,4.6z"
										/>
									<path class="st4" d="M391.1,25.1c0,1.3-1.1,2.4-2.4,2.4s-2.4-1.1-2.4-2.4s1.1-2.4,2.4-2.4
										C390.1,22.8,391.1,23.8,391.1,25.1z"/>
									<path class="st4" d="M411.7,25.1c0,1.3-1.1,2.4-2.4,2.4s-2.4-1.1-2.4-2.4s1.1-2.4,2.4-2.4
										C410.6,22.8,411.7,23.8,411.7,25.1z"/>
									<path class="st4" d="M432.3,25.1c0,1.3-1.1,2.4-2.4,2.4s-2.4-1.1-2.4-2.4s1.1-2.4,2.4-2.4
										C431.2,22.8,432.3,23.8,432.3,25.1z"/>
									<path class="st4" d="M391.1,45.7c0,1.3-1.1,2.4-2.4,2.4s-2.4-1.1-2.4-2.4s1.1-2.4,2.4-2.4S391.1,44.4,391.1,45.7z"/>
									<path class="st4" d="M411.7,45.7c0,1.3-1.1,2.4-2.4,2.4s-2.4-1.1-2.4-2.4s1.1-2.4,2.4-2.4S411.7,44.4,411.7,45.7z"/>
									<path class="st4" d="M432.3,45.7c0,1.3-1.1,2.4-2.4,2.4s-2.4-1.1-2.4-2.4s1.1-2.4,2.4-2.4S432.3,44.4,432.3,45.7z"/>
								</g>
								<g class="st3">
									<path class="st4" d="M199,187.4c0,1.3-1.1,2.4-2.4,2.4c-1.3,0-2.4-1.1-2.4-2.4c0-1.3,1.1-2.4,2.4-2.4S199,186.1,199,187.4z
										"/>
									<circle class="st4" cx="217.2" cy="187.4" r="2.4"/>
									<circle class="st4" cx="237.8" cy="187.4" r="2.4"/>
									<path class="st4" d="M199,207.9c0,1.3-1.1,2.4-2.4,2.4c-1.3,0-2.4-1.1-2.4-2.4s1.1-2.4,2.4-2.4S199,206.6,199,207.9z"/>
									<circle class="st4" cx="217.2" cy="207.9" r="2.4"/>
									<circle class="st4" cx="237.8" cy="207.9" r="2.4"/>
									<path class="st4" d="M199,228.5c0,1.3-1.1,2.4-2.4,2.4c-1.3,0-2.4-1.1-2.4-2.4c0-1.3,1.1-2.4,2.4-2.4S199,227.2,199,228.5z
										"/>
									<path class="st4" d="M219.6,228.5c0,1.3-1.1,2.4-2.4,2.4c-1.3,0-2.4-1.1-2.4-2.4c0-1.3,1.1-2.4,2.4-2.4
										S219.6,227.2,219.6,228.5z"/>
									<path class="st4" d="M240.2,228.5c0,1.3-1.1,2.4-2.4,2.4s-2.4-1.1-2.4-2.4c0-1.3,1.1-2.4,2.4-2.4S240.2,227.2,240.2,228.5z
										"/>
								</g>
							</g>
							<g>
								<g class="st3">
									<line class="st5" x1="584.2" y1="-74.7" x2="497.5" y2="11.9"/>
									<line class="st5" x1="580" y1="-78.9" x2="493.3" y2="7.8"/>
									<line class="st5" x1="575.8" y1="-83.1" x2="489.2" y2="3.6"/>
									<line class="st5" x1="571.7" y1="-87.3" x2="485" y2="-0.6"/>
									<line class="st5" x1="567.5" y1="-91.4" x2="480.8" y2="-4.7"/>
									<line class="st5" x1="563.3" y1="-95.6" x2="476.6" y2="-8.9"/>
									<line class="st5" x1="559.2" y1="-99.8" x2="472.5" y2="-13.1"/>
									<line class="st5" x1="555" y1="-103.9" x2="468.3" y2="-17.3"/>
									<line class="st5" x1="550.8" y1="-108.1" x2="464.1" y2="-21.4"/>
									<line class="st5" x1="546.6" y1="-112.3" x2="460" y2="-25.6"/>
									<line class="st5" x1="542.5" y1="-116.5" x2="455.8" y2="-29.8"/>
									<line class="st5" x1="538.3" y1="-120.6" x2="451.6" y2="-34"/>
									<line class="st5" x1="534.1" y1="-124.8" x2="447.4" y2="-38.1"/>
									<line class="st5" x1="530" y1="-129" x2="443.3" y2="-42.3"/>
									<line class="st5" x1="525.8" y1="-133.1" x2="439.1" y2="-46.5"/>
									<line class="st5" x1="521.6" y1="-137.3" x2="434.9" y2="-50.6"/>
									<line class="st5" x1="517.4" y1="-141.5" x2="430.8" y2="-54.8"/>
									<line class="st5" x1="513.3" y1="-145.7" x2="426.6" y2="-59"/>
									<line class="st5" x1="509.1" y1="-149.8" x2="422.4" y2="-63.2"/>
									<line class="st5" x1="504.9" y1="-154" x2="418.2" y2="-67.3"/>
									<line class="st5" x1="500.8" y1="-158.2" x2="414.1" y2="-71.5"/>
									<line class="st5" x1="496.6" y1="-162.4" x2="409.9" y2="-75.7"/>
									<line class="st5" x1="492.4" y1="-166.5" x2="405.7" y2="-79.8"/>
									<line class="st5" x1="488.2" y1="-170.7" x2="401.5" y2="-84"/>
									<line class="st5" x1="484.1" y1="-174.9" x2="397.4" y2="-88.2"/>
									<line class="st5" x1="479.9" y1="-179" x2="393.2" y2="-92.4"/>
									<line class="st5" x1="475.7" y1="-183.2" x2="389" y2="-96.5"/>
									<line class="st5" x1="471.5" y1="-187.4" x2="384.9" y2="-100.7"/>
								</g>
								<g class="st3">
									<line class="st5" x1="414.2" y1="627" x2="327.5" y2="713.7"/>
									<line class="st5" x1="410" y1="622.8" x2="323.3" y2="709.5"/>
									<line class="st5" x1="405.8" y1="618.7" x2="319.1" y2="705.3"/>
									<line class="st5" x1="401.6" y1="614.5" x2="315" y2="701.2"/>
									<line class="st5" x1="397.5" y1="610.3" x2="310.8" y2="697"/>
									<line class="st5" x1="393.3" y1="606.1" x2="306.6" y2="692.8"/>
									<line class="st5" x1="389.1" y1="602" x2="302.4" y2="688.7"/>
									<line class="st5" x1="385" y1="597.8" x2="298.3" y2="684.5"/>
									<line class="st5" x1="380.8" y1="593.6" x2="294.1" y2="680.3"/>
									<line class="st5" x1="376.6" y1="589.5" x2="289.9" y2="676.1"/>
									<line class="st5" x1="372.4" y1="585.3" x2="285.8" y2="672"/>
									<line class="st5" x1="368.3" y1="581.1" x2="281.6" y2="667.8"/>
									<line class="st5" x1="364.1" y1="576.9" x2="277.4" y2="663.6"/>
									<line class="st5" x1="359.9" y1="572.8" x2="273.2" y2="659.4"/>
									<line class="st5" x1="355.8" y1="568.6" x2="269.1" y2="655.3"/>
									<line class="st5" x1="351.6" y1="564.4" x2="264.9" y2="651.1"/>
									<line class="st5" x1="347.4" y1="560.2" x2="260.7" y2="646.9"/>
									<line class="st5" x1="343.2" y1="556.1" x2="256.5" y2="642.8"/>
									<line class="st5" x1="339.1" y1="551.9" x2="252.4" y2="638.6"/>
									<line class="st5" x1="334.9" y1="547.7" x2="248.2" y2="634.4"/>
									<line class="st5" x1="330.7" y1="543.5" x2="244" y2="630.2"/>
									<line class="st5" x1="326.5" y1="539.4" x2="239.9" y2="626.1"/>
									<line class="st5" x1="322.4" y1="535.2" x2="235.7" y2="621.9"/>
									<line class="st5" x1="318.2" y1="531" x2="231.5" y2="617.7"/>
									<line class="st5" x1="314" y1="526.9" x2="227.3" y2="613.5"/>
									<line class="st5" x1="309.9" y1="522.7" x2="223.2" y2="609.4"/>
									<line class="st5" x1="305.7" y1="518.5" x2="219" y2="605.2"/>
									<line class="st5" x1="301.5" y1="514.3" x2="214.8" y2="601"/>
								</g>
							</g>
							<g>
								<g class="st6">
									<ellipse class="st7" cx="191.9" cy="-100.8" rx="189.5" ry="189.5"/>
									<ellipse class="st8" cx="191.9" cy="-100.8" rx="182.6" ry="182.6"/>
									<ellipse class="st9" cx="191.9" cy="-100.8" rx="175.6" ry="175.6"/>
									<ellipse class="st10" cx="191.9" cy="-100.8" rx="168.7" ry="168.7"/>
									<ellipse class="st11" cx="191.9" cy="-100.8" rx="161.7" ry="161.7"/>
									<ellipse class="st12" cx="191.9" cy="-100.8" rx="154.8" ry="154.8"/>
									<ellipse class="st13" cx="191.9" cy="-100.8" rx="147.8" ry="147.8"/>
									<ellipse class="st14" cx="191.9" cy="-100.8" rx="140.9" ry="140.9"/>
									<ellipse class="st15" cx="191.9" cy="-100.8" rx="134" ry="134"/>
									<ellipse class="st16" cx="191.9" cy="-100.8" rx="127" ry="127"/>
									<ellipse class="st17" cx="191.9" cy="-100.8" rx="120.1" ry="120.1"/>
									<ellipse class="st18" cx="191.9" cy="-100.8" rx="113.1" ry="113.1"/>
									<ellipse class="st19" cx="191.9" cy="-100.8" rx="106.2" ry="106.2"/>
									<ellipse class="st20" cx="191.9" cy="-100.8" rx="99.2" ry="99.2"/>
									
										<ellipse transform="matrix(0.7071 -0.7071 0.7071 0.7071 127.4768 106.1402)" class="st21" cx="191.9" cy="-100.8" rx="92.3" ry="92.3"/>
									<ellipse class="st22" cx="191.9" cy="-100.8" rx="85.4" ry="85.4"/>
									<ellipse class="st23" cx="191.9" cy="-100.8" rx="78.4" ry="78.4"/>
									<ellipse class="st24" cx="191.9" cy="-100.8" rx="71.5" ry="71.5"/>
									<ellipse class="st25" cx="191.9" cy="-100.8" rx="64.5" ry="64.5"/>
									<ellipse class="st26" cx="191.9" cy="-100.8" rx="57.6" ry="57.6"/>
									<ellipse class="st27" cx="191.9" cy="-100.8" rx="50.6" ry="50.6"/>
									<ellipse class="st28" cx="191.9" cy="-100.8" rx="43.7" ry="43.7"/>
									<ellipse class="st29" cx="191.9" cy="-100.8" rx="36.7" ry="36.7"/>
								</g>
								<g class="st30">
									<ellipse class="st31" cx="402.5" cy="241.2" rx="124" ry="124"/>
									<ellipse class="st32" cx="402.5" cy="241.2" rx="117.6" ry="117.6"/>
									
										<ellipse transform="matrix(0.7071 -0.7071 0.7071 0.7071 -52.6362 355.2536)" class="st33" cx="402.5" cy="241.2" rx="111.2" ry="111.2"/>
									<ellipse class="st34" cx="402.5" cy="241.2" rx="104.8" ry="104.8"/>
									<ellipse class="st35" cx="402.5" cy="241.2" rx="98.4" ry="98.4"/>
									<ellipse class="st36" cx="402.5" cy="241.2" rx="92" ry="92"/>
									<ellipse class="st37" cx="402.5" cy="241.2" rx="85.5" ry="85.5"/>
									<ellipse class="st38" cx="402.5" cy="241.2" rx="79.1" ry="79.1"/>
									<ellipse class="st39" cx="402.5" cy="241.2" rx="72.7" ry="72.7"/>
									<ellipse class="st40" cx="402.5" cy="241.2" rx="66.3" ry="66.3"/>
									<ellipse class="st41" cx="402.4" cy="241.2" rx="59.9" ry="59.9"/>
									<ellipse class="st42" cx="402.5" cy="241.2" rx="53.5" ry="53.5"/>
									<ellipse class="st43" cx="402.5" cy="241.1" rx="47.1" ry="47.1"/>
									<ellipse class="st44" cx="402.5" cy="241.2" rx="40.7" ry="40.7"/>
									<ellipse class="st45" cx="402.5" cy="241.1" rx="34.3" ry="34.3"/>
									<circle class="st46" cx="402.5" cy="241.2" r="27.9"/>
								</g>
								<g class="st47">
									<g>
										<ellipse class="st48" cx="40.6" cy="186.3" rx="108.8" ry="108.8"/>
									</g>
									<g>
										<ellipse class="st49" cx="40.6" cy="186.3" rx="102.9" ry="102.9"/>
									</g>
									<g>
										<ellipse class="st50" cx="40.6" cy="186.3" rx="97.1" ry="97.1"/>
									</g>
									<g>
										<ellipse class="st51" cx="40.6" cy="186.3" rx="91.3" ry="91.3"/>
									</g>
									<g>
										
											<ellipse transform="matrix(0.7071 -0.7071 0.7071 0.7071 -119.8295 83.2834)" class="st52" cx="40.6" cy="186.3" rx="85.5" ry="85.5"/>
									</g>
									<g>
										<ellipse class="st53" cx="40.6" cy="186.3" rx="79.7" ry="79.7"/>
									</g>
									<g>
										<ellipse class="st54" cx="40.6" cy="186.3" rx="73.9" ry="73.9"/>
									</g>
									<g>
										<ellipse class="st55" cx="40.6" cy="186.3" rx="68" ry="68"/>
									</g>
									<g>
										<ellipse class="st56" cx="40.6" cy="186.3" rx="62.2" ry="62.2"/>
									</g>
									<g>
										<ellipse class="st57" cx="40.6" cy="186.3" rx="56.4" ry="56.4"/>
									</g>
									<g>
										<ellipse class="st58" cx="40.6" cy="186.3" rx="50.6" ry="50.6"/>
									</g>
									<g>
										<ellipse class="st59" cx="40.6" cy="186.3" rx="44.8" ry="44.8"/>
									</g>
									<g>
										<circle class="st60" cx="40.6" cy="186.3" r="39"/>
									</g>
									<g>
										<circle class="st61" cx="40.6" cy="186.3" r="33.2"/>
									</g>
									<g>
										<circle class="st62" cx="40.6" cy="186.3" r="27.3"/>
									</g>
									<g>
										<circle class="st63" cx="40.6" cy="186.3" r="21.5"/>
									</g>
								</g>
								<g class="st64">
									<g>
										<circle class="st65" cx="806.3" cy="-74.7" r="201.5"/>
									</g>
									<g>
										<circle class="st66" cx="806.3" cy="-74.7" r="196"/>
									</g>
									<g>
										<circle class="st67" cx="806.3" cy="-74.7" r="190.4"/>
									</g>
									<g>
										<circle class="st68" cx="806.3" cy="-74.7" r="184.8"/>
									</g>
									<g>
										<circle class="st69" cx="806.3" cy="-74.7" r="179.2"/>
									</g>
									<g>
										<circle class="st70" cx="806.3" cy="-74.7" r="173.7"/>
									</g>
									<g>
										<circle class="st71" cx="806.3" cy="-74.7" r="168.1"/>
									</g>
									<g>
										<circle class="st72" cx="806.3" cy="-74.7" r="162.5"/>
									</g>
									<g>
										<circle class="st73" cx="806.3" cy="-74.7" r="156.9"/>
									</g>
									<g>
										<circle class="st74" cx="806.3" cy="-74.7" r="151.4"/>
									</g>
									<g>
										<circle class="st75" cx="806.3" cy="-74.7" r="145.8"/>
									</g>
									<g>
										<circle class="st76" cx="806.3" cy="-74.7" r="140.2"/>
									</g>
									<g>
										<circle class="st77" cx="806.3" cy="-74.7" r="134.6"/>
									</g>
									<g>
										<circle class="st78" cx="806.3" cy="-74.7" r="129.1"/>
									</g>
									<g>
										<circle class="st79" cx="806.3" cy="-74.7" r="123.5"/>
									</g>
									<g>
										<circle class="st80" cx="806.3" cy="-74.7" r="117.9"/>
									</g>
									<g>
										<circle class="st81" cx="806.3" cy="-74.7" r="112.3"/>
									</g>
									<g>
										<circle class="st82" cx="806.3" cy="-74.7" r="106.8"/>
									</g>
									<g>
										<circle class="st83" cx="806.3" cy="-74.7" r="101.2"/>
									</g>
									<g>
										<circle class="st84" cx="806.3" cy="-74.7" r="95.6"/>
									</g>
									<g>
										<circle class="st85" cx="806.3" cy="-74.7" r="90"/>
									</g>
									<g>
										<circle class="st86" cx="806.3" cy="-74.7" r="84.5"/>
									</g>
									<g>
										<circle class="st87" cx="806.3" cy="-74.7" r="78.9"/>
									</g>
									<g>
										<circle class="st88" cx="806.3" cy="-74.7" r="73.3"/>
									</g>
									<g>
										<ellipse class="st89" cx="806.3" cy="-74.8" rx="67.7" ry="67.7"/>
									</g>
									<g>
										<circle class="st90" cx="806.3" cy="-74.7" r="62.2"/>
									</g>
									<g>
										<circle class="st91" cx="806.3" cy="-74.7" r="56.6"/>
									</g>
									<g>
										<circle class="st92" cx="806.3" cy="-74.7" r="51"/>
									</g>
									<g>
										<ellipse class="st93" cx="806.3" cy="-74.8" rx="45.5" ry="45.5"/>
									</g>
									<g>
										<ellipse class="st94" cx="806.3" cy="-74.7" rx="39.9" ry="39.9"/>
									</g>
								</g>
								<g class="st95">
									<g>
										<g>
											<defs>
												<circle id="SVGID_7_" cx="228.6" cy="347.4" r="43.3"/>
											</defs>
											<clipPath id="SVGID_8_">
												<use xlink:href="#SVGID_7_"  style="overflow:visible;"/>
											</clipPath>
											<g class="st96">
												<line class="st97" x1="166.1" y1="253.6" x2="-21.4" y2="441.1"/>
												<line class="st97" x1="174.1" y1="253.6" x2="-13.4" y2="441.1"/>
												<line class="st97" x1="182.1" y1="253.6" x2="-5.4" y2="441.1"/>
												<line class="st97" x1="190.1" y1="253.6" x2="2.6" y2="441.1"/>
												<line class="st97" x1="198.2" y1="253.6" x2="10.6" y2="441.1"/>
												<line class="st97" x1="206.2" y1="253.6" x2="18.6" y2="441.1"/>
												<line class="st97" x1="214.2" y1="253.6" x2="26.6" y2="441.1"/>
												<line class="st97" x1="222.2" y1="253.6" x2="34.7" y2="441.1"/>
												<line class="st97" x1="230.2" y1="253.6" x2="42.7" y2="441.1"/>
												<line class="st97" x1="238.2" y1="253.6" x2="50.7" y2="441.1"/>
												<line class="st97" x1="246.3" y1="253.6" x2="58.7" y2="441.1"/>
												<line class="st97" x1="254.3" y1="253.6" x2="66.7" y2="441.1"/>
												<line class="st97" x1="262.3" y1="253.6" x2="74.7" y2="441.1"/>
												<line class="st97" x1="270.3" y1="253.6" x2="82.8" y2="441.1"/>
												<line class="st97" x1="278.3" y1="253.6" x2="90.8" y2="441.1"/>
												<line class="st97" x1="286.3" y1="253.6" x2="98.8" y2="441.1"/>
												<line class="st97" x1="294.3" y1="253.6" x2="106.8" y2="441.1"/>
												<line class="st97" x1="302.4" y1="253.6" x2="114.8" y2="441.1"/>
												<line class="st97" x1="310.4" y1="253.6" x2="122.8" y2="441.1"/>
												<line class="st97" x1="318.4" y1="253.6" x2="130.8" y2="441.1"/>
												<line class="st97" x1="326.4" y1="253.6" x2="138.9" y2="441.1"/>
												<line class="st97" x1="334.4" y1="253.6" x2="146.9" y2="441.1"/>
												<line class="st97" x1="342.4" y1="253.6" x2="154.9" y2="441.1"/>
												<line class="st97" x1="350.5" y1="253.6" x2="162.9" y2="441.1"/>
												<line class="st97" x1="358.5" y1="253.6" x2="170.9" y2="441.1"/>
												<line class="st97" x1="366.5" y1="253.6" x2="178.9" y2="441.1"/>
												<line class="st97" x1="374.5" y1="253.6" x2="186.9" y2="441.1"/>
												<line class="st97" x1="382.5" y1="253.6" x2="195" y2="441.1"/>
												<line class="st97" x1="390.5" y1="253.6" x2="203" y2="441.1"/>
												<line class="st97" x1="398.5" y1="253.6" x2="211" y2="441.1"/>
												<line class="st97" x1="406.5" y1="253.6" x2="219" y2="441.1"/>
												<line class="st97" x1="414.6" y1="253.6" x2="227" y2="441.1"/>
												<line class="st97" x1="422.6" y1="253.6" x2="235" y2="441.1"/>
												<line class="st97" x1="430.6" y1="253.6" x2="243.1" y2="441.1"/>
												<line class="st97" x1="438.6" y1="253.6" x2="251.1" y2="441.1"/>
												<line class="st97" x1="446.6" y1="253.6" x2="259.1" y2="441.1"/>
												<line class="st97" x1="454.6" y1="253.6" x2="267.1" y2="441.1"/>
												<line class="st97" x1="462.6" y1="253.6" x2="275.1" y2="441.1"/>
												<line class="st97" x1="470.7" y1="253.6" x2="283.1" y2="441.1"/>
												<line class="st97" x1="478.7" y1="253.6" x2="291.1" y2="441.1"/>
											</g>
										</g>
									</g>
								</g>
								<g class="st64">
									<g>
										<g>
											<defs>
												<circle id="SVGID_9_" cx="706.1" cy="609.2" r="138.4"/>
											</defs>
											<clipPath id="SVGID_10_">
												<use xlink:href="#SVGID_9_"  style="overflow:visible;"/>
											</clipPath>
											<g class="st98">
												<line class="st97" x1="683.6" y1="384.7" x2="238.5" y2="829.8"/>
												<line class="st97" x1="691.6" y1="384.7" x2="246.5" y2="829.8"/>
												<line class="st97" x1="699.5" y1="384.7" x2="254.4" y2="829.8"/>
												<line class="st97" x1="707.5" y1="384.7" x2="262.4" y2="829.8"/>
												<line class="st97" x1="715.4" y1="384.7" x2="270.3" y2="829.8"/>
												<line class="st97" x1="723.3" y1="384.7" x2="278.2" y2="829.8"/>
												<line class="st97" x1="731.3" y1="384.7" x2="286.2" y2="829.8"/>
												<line class="st97" x1="739.2" y1="384.7" x2="294.1" y2="829.8"/>
												<line class="st97" x1="747.2" y1="384.7" x2="302.1" y2="829.8"/>
												<line class="st97" x1="755.1" y1="384.7" x2="310" y2="829.8"/>
												<line class="st97" x1="763.1" y1="384.7" x2="318" y2="829.8"/>
												<line class="st97" x1="771" y1="384.7" x2="325.9" y2="829.8"/>
												<line class="st97" x1="779" y1="384.7" x2="333.9" y2="829.8"/>
												<line class="st97" x1="786.9" y1="384.7" x2="341.8" y2="829.8"/>
												<line class="st97" x1="794.8" y1="384.7" x2="349.8" y2="829.8"/>
												<line class="st97" x1="802.8" y1="384.7" x2="357.7" y2="829.8"/>
												<line class="st97" x1="810.7" y1="384.7" x2="365.6" y2="829.8"/>
												<line class="st97" x1="818.7" y1="384.7" x2="373.6" y2="829.8"/>
												<line class="st97" x1="826.6" y1="384.7" x2="381.5" y2="829.8"/>
												<line class="st97" x1="834.6" y1="384.7" x2="389.5" y2="829.8"/>
												<line class="st97" x1="842.5" y1="384.7" x2="397.4" y2="829.8"/>
												<line class="st97" x1="850.5" y1="384.7" x2="405.4" y2="829.8"/>
												<line class="st97" x1="858.4" y1="384.7" x2="413.3" y2="829.8"/>
												<line class="st97" x1="866.3" y1="384.7" x2="421.2" y2="829.8"/>
												<line class="st97" x1="874.3" y1="384.7" x2="429.2" y2="829.8"/>
												<line class="st97" x1="882.2" y1="384.7" x2="437.1" y2="829.8"/>
												<line class="st97" x1="890.2" y1="384.7" x2="445.1" y2="829.8"/>
												<line class="st97" x1="898.1" y1="384.7" x2="453" y2="829.8"/>
												<line class="st97" x1="906.1" y1="384.7" x2="461" y2="829.8"/>
												<line class="st97" x1="914" y1="384.7" x2="468.9" y2="829.8"/>
												<line class="st97" x1="922" y1="384.7" x2="476.9" y2="829.8"/>
												<line class="st97" x1="929.9" y1="384.7" x2="484.8" y2="829.8"/>
												<line class="st97" x1="937.8" y1="384.7" x2="492.8" y2="829.8"/>
												<line class="st97" x1="945.8" y1="384.7" x2="500.7" y2="829.8"/>
												<line class="st97" x1="953.7" y1="384.7" x2="508.6" y2="829.8"/>
												<line class="st97" x1="961.7" y1="384.7" x2="516.6" y2="829.8"/>
												<line class="st97" x1="969.6" y1="384.7" x2="524.5" y2="829.8"/>
												<line class="st97" x1="977.6" y1="384.7" x2="532.5" y2="829.8"/>
												<line class="st97" x1="985.5" y1="384.7" x2="540.4" y2="829.8"/>
												<line class="st97" x1="993.5" y1="384.7" x2="548.4" y2="829.8"/>
												<line class="st97" x1="1001.4" y1="384.7" x2="556.3" y2="829.8"/>
												<line class="st97" x1="1009.3" y1="384.7" x2="564.2" y2="829.8"/>
												<line class="st97" x1="1017.3" y1="384.7" x2="572.2" y2="829.8"/>
												<line class="st97" x1="1025.2" y1="384.7" x2="580.1" y2="829.8"/>
												<line class="st97" x1="1033.2" y1="384.7" x2="588.1" y2="829.8"/>
												<line class="st97" x1="1041.1" y1="384.7" x2="596" y2="829.8"/>
												<line class="st97" x1="1049.1" y1="384.7" x2="604" y2="829.8"/>
												<line class="st97" x1="1057" y1="384.7" x2="611.9" y2="829.8"/>
												<line class="st97" x1="1064.9" y1="384.7" x2="619.9" y2="829.8"/>
												<line class="st97" x1="1072.9" y1="384.7" x2="627.8" y2="829.8"/>
												<line class="st97" x1="1080.8" y1="384.7" x2="635.7" y2="829.8"/>
												<line class="st97" x1="1088.8" y1="384.7" x2="643.7" y2="829.8"/>
												<line class="st97" x1="1096.7" y1="384.7" x2="651.6" y2="829.8"/>
												<line class="st97" x1="1104.7" y1="384.7" x2="659.6" y2="829.8"/>
												<line class="st97" x1="1112.6" y1="384.7" x2="667.5" y2="829.8"/>
												<line class="st97" x1="1120.6" y1="384.7" x2="675.5" y2="829.8"/>
												<line class="st97" x1="1128.5" y1="384.7" x2="683.4" y2="829.8"/>
												<line class="st97" x1="1136.4" y1="384.7" x2="691.3" y2="829.8"/>
												<line class="st97" x1="1144.4" y1="384.7" x2="699.3" y2="829.8"/>
												<line class="st97" x1="1152.3" y1="384.7" x2="707.2" y2="829.8"/>
											</g>
										</g>
									</g>
								</g>
							</g>
							<g>
								<g class="st99">
									
										<rect x="-372.7" y="215.9" transform="matrix(0.7071 -0.7071 0.7071 0.7071 -323.6211 -51.0835)" class="st100" width="298.5" height="298.5"/>
									
										<rect x="657.1" y="4.9" transform="matrix(0.7071 -0.7071 0.7071 0.7071 127.1995 615.3135)" class="st100" width="298.5" height="298.5"/>
									
										<rect x="152.9" y="506.1" transform="matrix(0.7071 -0.7071 0.7071 0.7071 -374.8911 405.6062)" class="st101" width="298.5" height="298.5"/>
								</g>
								<g>
									
										<linearGradient id="SVGID_11_" gradientUnits="userSpaceOnUse" x1="521.6232" y1="22.8679" x2="521.6232" y2="-390.8867" gradientTransform="matrix(-0.4778 -0.4778 0.7154 -0.7154 138.0718 650.0912)">
										<stop  offset="0" style="stop-color:#FFFFFF"/>
										<stop  offset="1" style="stop-color:#000000;stop-opacity:0"/>
									</linearGradient>
									<path class="st102" d="M-94.8,384.5L-94.8,384.5c20,20,20,52.6,0,72.6l-223.4,223.4c-20,20-52.6,20-72.6,0l0,0
										c-20-20-20-52.6,0-72.6l223.4-223.4C-147.4,364.4-114.9,364.4-94.8,384.5z"/>
									
										<linearGradient id="SVGID_12_" gradientUnits="userSpaceOnUse" x1="175.3761" y1="111.4833" x2="175.3761" y2="-192.3689" gradientTransform="matrix(-0.7071 -0.7071 1.0176 -1.0176 149.963 601.4537)">
										<stop  offset="0" style="stop-color:#FFFFFF"/>
										<stop  offset="1" style="stop-color:#000000;stop-opacity:0"/>
									</linearGradient>
									<path class="st103" d="M139.4,364L139.4,364c21.8,21.8,21.8,57.1,0,78.9L-90.9,673.2c-21.8,21.8-57.1,21.8-78.9,0l0,0
										c-21.8-21.8-21.8-57.1,0-78.9L60.5,364C82.2,342.2,117.6,342.2,139.4,364z"/>
									
										<linearGradient id="SVGID_13_" gradientUnits="userSpaceOnUse" x1="74.1173" y1="89.0928" x2="74.1173" y2="-111.7275" gradientTransform="matrix(-0.7071 -0.7071 0.7071 -0.7071 120.4108 631.0058)">
										<stop  offset="0" style="stop-color:#FFFFFF"/>
										<stop  offset="1" style="stop-color:#000000;stop-opacity:0"/>
									</linearGradient>
									<path class="st104" d="M131,515.6L131,515.6c10.4,10.4,10.4,27.2,0,37.6L26.6,657.6C16.2,668-0.6,668-11,657.6l0,0
										c-10.4-10.4-10.4-27.2,0-37.6L93.4,515.6C103.8,505.2,120.6,505.2,131,515.6z"/>
									
										<linearGradient id="SVGID_14_" gradientUnits="userSpaceOnUse" x1="62.4924" y1="698.6079" x2="-53.4233" y2="814.5235" gradientTransform="matrix(1 0 0 1 0 -256)">
										<stop  offset="0" style="stop-color:#FFFFFF"/>
										<stop  offset="1" style="stop-color:#000000;stop-opacity:0"/>
									</linearGradient>
									<path class="st105" d="M45.4,459.7L45.4,459.7c13.9,13.9,13.9,36.4,0,50.3L-162,717.4c-13.9,13.9-36.4,13.9-50.3,0l0,0
										c-13.9-13.9-13.9-36.4,0-50.3L-4.8,459.7C9,445.9,31.5,445.9,45.4,459.7z"/>
									
										<linearGradient id="SVGID_15_" gradientUnits="userSpaceOnUse" x1="173.6398" y1="502.1873" x2="173.6398" y2="198.3842" gradientTransform="matrix(0.7071 0.7071 -1.0176 1.0176 971.3701 -396.3816)">
										<stop  offset="0" style="stop-color:#FFFFFF"/>
										<stop  offset="1" style="stop-color:#000000;stop-opacity:0"/>
									</linearGradient>
									<path class="st106" d="M583.1,237.4L583.1,237.4c-21.8-21.8-21.8-57.1,0-78.9L813.4-71.7c21.8-21.8,57.1-21.8,78.9,0l0,0
										c21.8,21.8,21.8,57.1,0,78.9L662,237.4C640.3,259.2,604.9,259.2,583.1,237.4z"/>
									
										<linearGradient id="SVGID_16_" gradientUnits="userSpaceOnUse" x1="35.2576" y1="632.0576" x2="35.2576" y2="431.3081" gradientTransform="matrix(0.7071 0.7071 -0.7071 0.7071 1000.9223 -425.9336)">
										<stop  offset="0" style="stop-color:#FFFFFF"/>
										<stop  offset="1" style="stop-color:#000000;stop-opacity:0"/>
									</linearGradient>
									<path class="st107" d="M578.9,45.9L578.9,45.9c-10.4-10.4-10.4-27.2,0-37.6L683.3-96c10.4-10.4,27.2-10.4,37.6,0l0,0
										c10.4,10.4,10.4,27.2,0,37.6L616.5,45.9C606.1,56.3,589.3,56.3,578.9,45.9z"/>
									
										<linearGradient id="SVGID_17_" gradientUnits="userSpaceOnUse" x1="291.6216" y1="648.1799" x2="291.6216" y2="447.3596" gradientTransform="matrix(0.7071 0.7071 -0.7071 0.7071 1000.9223 -425.9336)">
										<stop  offset="0" style="stop-color:#FFFFFF"/>
										<stop  offset="1" style="stop-color:#000000;stop-opacity:0"/>
									</linearGradient>
									<path class="st108" d="M748.8,238.6L748.8,238.6c-10.4-10.4-10.4-27.2,0-37.6L853.2,96.6c10.4-10.4,27.2-10.4,37.6,0l0,0
										c10.4,10.4,10.4,27.2,0,37.6L786.4,238.6C776,249,759.2,249,748.8,238.6z"/>
								</g>
							</g>
							<g class="st109">
								<circle class="st110" cx="19.6" cy="40" r="5.5"/>
								<path class="st110" d="M394.8,412.4c0,3-2.5,5.5-5.5,5.5s-5.5-2.5-5.5-5.5s2.5-5.5,5.5-5.5S394.8,409.4,394.8,412.4z"/>
								<path class="st110" d="M223.3,141.4c0,3-2.5,5.5-5.5,5.5s-5.5-2.5-5.5-5.5s2.5-5.5,5.5-5.5
									C220.9,135.9,223.3,138.4,223.3,141.4z"/>
								<path class="st110" d="M-162.2,320.1c0,3-2.5,5.5-5.5,5.5s-5.5-2.5-5.5-5.5s2.5-5.5,5.5-5.5
									C-164.6,314.6-162.2,317.1-162.2,320.1z"/>
								<path class="st110" d="M-106.7,159.4c0,3-2.5,5.5-5.5,5.5s-5.5-2.5-5.5-5.5s2.5-5.5,5.5-5.5S-106.7,156.4-106.7,159.4z"/>
								<g>
									<line class="st110" x1="325.7" y1="87" x2="325.7" y2="96.6"/>
									<line class="st110" x1="330.5" y1="91.8" x2="320.9" y2="91.8"/>
								</g>
								<g>
									<line class="st110" x1="729.1" y1="407.6" x2="729.1" y2="417.2"/>
									<line class="st110" x1="733.9" y1="412.4" x2="724.3" y2="412.4"/>
								</g>
								<g>
									<line class="st110" x1="52.5" y1="320.8" x2="52.5" y2="330.4"/>
									<line class="st110" x1="57.3" y1="325.6" x2="47.7" y2="325.6"/>
								</g>
								<g>
									<g>
										<line class="st110" x1="542.7" y1="522.3" x2="542.7" y2="531.9"/>
										<line class="st110" x1="547.5" y1="527.1" x2="537.9" y2="527.1"/>
									</g>
									<g>
										<line class="st110" x1="513.7" y1="522.3" x2="513.7" y2="531.9"/>
										<line class="st110" x1="518.5" y1="527.1" x2="508.9" y2="527.1"/>
									</g>
									<g>
										<line class="st110" x1="484.7" y1="522.3" x2="484.7" y2="531.9"/>
										<line class="st110" x1="489.5" y1="527.1" x2="479.9" y2="527.1"/>
									</g>
								</g>
								<g>
									<g>
										<line class="st110" x1="-106.7" y1="93.4" x2="-106.7" y2="103"/>
										<line class="st110" x1="-101.9" y1="98.2" x2="-111.5" y2="98.2"/>
									</g>
									<g>
										<line class="st110" x1="-135.7" y1="93.4" x2="-135.7" y2="103"/>
										<line class="st110" x1="-130.9" y1="98.2" x2="-140.4" y2="98.2"/>
									</g>
									<g>
										<line class="st110" x1="-164.6" y1="93.4" x2="-164.6" y2="103"/>
										<line class="st110" x1="-159.9" y1="98.2" x2="-169.4" y2="98.2"/>
									</g>
								</g>
								<polygon class="st110" points="166.5,293.1 173.9,280.1 159,280.1 								"/>
								<polygon class="st110" points="523.3,96.6 515.8,109.5 530.8,109.5 								"/>
								<path class="st110" d="M154.9,488.8c3.2-3.2,9,2.5,12.2-0.8s-2.4-9,0.8-12.2s9,2.5,12.2-0.8s-2.4-9,0.8-12.2s9,2.5,12.2-0.8
									c3.3-3.3-2.4-9,0.8-12.2s9,2.5,12.2-0.8"/>
								<path class="st110" d="M438.3,462.2c3.2-3.2,9,2.5,12.2-0.8s-2.5-9,0.8-12.2s9,2.5,12.2-0.8s-2.5-9,0.8-12.2
									c3.2-3.2,9,2.5,12.2-0.8c3.3-3.3-2.5-9,0.8-12.2s9,2.5,12.2-0.8"/>
								<path class="st110" d="M454.3,93.2c3.2-3.2,9,2.4,12.2-0.8s-2.5-9,0.8-12.2s9,2.4,12.2-0.8s-2.5-8.9,0.8-12.2
									c3.2-3.2,9,2.4,12.2-0.8c3.3-3.3-2.5-9,0.8-12.2c3.3-3.3,9,2.5,12.2-0.8"/>
							</g>
						</g>
					</g>
				</g>
			</g>
		</g>
	</g>
</g>
</svg>
