<?xml version="1.0" encoding="utf-8"?>
<!-- Generator: Adobe Illustrator 23.0.1, SVG Export Plug-In . SVG Version: 6.00 Build 0)  -->
<svg version="1.1" id="Layer_1" xmlns="http://www.w3.org/2000/svg" xmlns:xlink="http://www.w3.org/1999/xlink" x="0px" y="0px"
	 viewBox="0 0 500 500" style="enable-background:new 0 0 500 500;" xml:space="preserve">
<style type="text/css">
	.st0{fill:#EA360C;}
</style>
<path class="st0" d="M349.08,358.37h-43.32v-86.68h43.35L349.08,358.37z M262.4,358.37h-43.34V141.62h43.35L262.4,358.37z
	 M175.71,358.37h-43.36V206.65h43.36V358.37z M392.45,54.93H89.02c-11.49,0.03-22.49,4.61-30.61,12.73
	c-8.12,8.12-12.7,19.13-12.73,30.61v303.44c0.03,11.49,4.61,22.49,12.73,30.61c8.12,8.12,19.13,12.7,30.61,12.73h303.44
	c11.49-0.03,22.49-4.61,30.61-12.73c8.12-8.12,12.7-19.13,12.73-30.61V98.28c-0.03-11.49-4.61-22.49-12.73-30.61
	C414.95,59.55,403.94,54.97,392.45,54.93z"/>
</svg>
