<?xml version="1.0" encoding="utf-8"?>
<!-- Generator: Adobe Illustrator 23.0.1, SVG Export Plug-In . SVG Version: 6.00 Build 0)  -->
<svg version="1.1" id="Layer_1" xmlns="http://www.w3.org/2000/svg" xmlns:xlink="http://www.w3.org/1999/xlink" x="0px" y="0px"
	 viewBox="0 0 500 500" style="enable-background:new 0 0 500 500;" xml:space="preserve">
<style type="text/css">
	.st0{fill:#EA360C;}
</style>
<path class="st0" d="M395.43,120.88c1.51-1.51,2.71-3.3,3.53-5.28c0.82-1.97,1.24-4.09,1.24-6.23s-0.42-4.25-1.24-6.23
	c-0.82-1.97-2.02-3.77-3.53-5.28l-38.18-38.17c-1.51-1.51-3.3-2.71-5.28-3.53c-1.97-0.82-4.09-1.24-6.23-1.24
	c-2.14,0-4.25,0.42-6.23,1.24c-1.97,0.82-3.77,2.02-5.28,3.53l-31.98,31.97l61.18,61.18L395.43,120.88z M347.14,169.17l-61.18-61.18
	L122.81,271.14v61.17h61.18L347.14,169.17z"/>
<rect x="57.56" y="381.26" class="st0" width="391.56" height="65.26"/>
</svg>
