<?xml version="1.0" encoding="utf-8"?>
<!-- Generator: Adobe Illustrator 23.0.1, SVG Export Plug-In . SVG Version: 6.00 Build 0)  -->
<svg version="1.1" id="Layer_1" xmlns="http://www.w3.org/2000/svg" xmlns:xlink="http://www.w3.org/1999/xlink" x="0px" y="0px"
	 viewBox="0 0 500 500" style="enable-background:new 0 0 500 500;" xml:space="preserve">
<style type="text/css">
	.st0{fill:#EA360C;}
</style>
<path class="st0" d="M321.72,290.25c1.7-12.95,2.62-26,2.74-39.07c-0.12-13.07-1.03-26.11-2.73-39.07h66.02
	c3.29,12.77,4.99,25.89,5.08,39.07c-0.09,13.18-1.79,26.3-5.08,39.07H321.72z M287.15,398.84c11.79-21.99,20.84-45.34,26.95-69.54
	h57.62C352.8,361.9,322.78,386.59,287.15,398.84L287.15,398.84z M282.26,290.25h-91.42c-1.93-12.94-2.97-25.99-3.12-39.07
	c0.14-13.08,1.19-26.13,3.12-39.07h91.42c1.94,12.93,2.98,25.99,3.12,39.07C285.24,264.26,284.19,277.32,282.26,290.25
	L282.26,290.25z M236.56,406.67c-16.41-23.67-29-49.77-37.31-77.35h74.62C265.55,356.89,252.96,383,236.56,406.67z M159.01,173.05
	h-57.62c18.86-32.64,48.91-57.34,84.58-69.54C174.18,125.51,165.12,148.86,159.01,173.05z M101.39,329.32h57.62
	c6.11,24.19,15.17,47.55,26.95,69.54C150.3,386.65,120.25,361.95,101.39,329.32z M85.37,290.25c-3.29-12.77-4.99-25.89-5.08-39.07
	c0.09-13.18,1.79-26.3,5.08-39.07h66.02c-1.7,12.95-2.61,26-2.73,39.07c0.12,13.07,1.03,26.11,2.73,39.07H85.37z M236.56,95.7
	c16.41,23.67,29,49.77,37.31,77.35h-74.62C207.56,145.48,220.15,119.38,236.56,95.7L236.56,95.7z M371.73,173.05H314.1
	c-6.11-24.19-15.17-47.55-26.95-69.54C322.78,115.78,352.8,140.47,371.73,173.05L371.73,173.05z M236.36,55.86
	c-38.62,0.04-76.37,11.53-108.47,33.01c-32.1,21.49-57.1,52.01-71.86,87.7S37.44,251.53,45,289.41
	c7.56,37.88,26.18,72.66,53.5,99.96c27.33,27.3,62.13,45.88,100.02,53.4c37.89,7.52,77.15,3.64,112.83-11.15
	c35.68-14.79,66.18-39.83,87.63-71.94c21.45-32.12,32.91-69.88,32.91-108.5c0.01-25.67-5.04-51.09-14.86-74.81
	c-9.82-23.72-24.23-45.26-42.39-63.41c-18.16-18.14-39.72-32.53-63.45-42.33C287.46,60.84,262.03,55.82,236.36,55.86z"/>
</svg>
